<?xml version="1.0" standalone="no"?>
<!DOCTYPE svg PUBLIC "-//W3C//DTD SVG 20010904//EN"
 "http://www.w3.org/TR/2001/REC-SVG-20010904/DTD/svg10.dtd">
<svg version="1.0" xmlns="http://www.w3.org/2000/svg"
 width="328.000000pt" height="445.000000pt" viewBox="0 0 328.000000 445.000000"
 preserveAspectRatio="xMidYMid meet">

<g transform="translate(0.000000,445.000000) scale(0.100000,-0.100000)"
fill="#000000" stroke="none">
<path d="M20 4283 c0 -93 5 -553 10 -1023 5 -470 10 -1055 12 -1300 l3 -445
-22 -3 -23 -3 0 -755 0 -754 1189 0 1190 0 -18 53 c-10 28 -41 106 -69 172
-28 66 -66 167 -85 225 -19 58 -42 122 -51 142 -27 63 -17 130 14 93 7 -8 20
-15 29 -15 13 0 13 -2 2 -9 -16 -10 -6 -31 14 -31 8 0 14 8 12 17 -1 10 3 20
8 22 22 8 36 41 26 58 -9 16 -10 16 -11 -4 0 -12 -3 -24 -7 -26 -5 -3 -8 14
-8 38 0 26 4 41 10 37 6 -3 5 1 -1 9 -8 9 -9 31 -4 63 4 27 4 65 -1 85 -4 20
-10 81 -13 135 -4 93 -7 102 -38 144 -18 25 -43 61 -56 79 -12 19 -34 39 -47
45 -14 6 -25 15 -25 19 0 4 -33 20 -72 35 -40 16 -83 34 -96 42 -16 10 -37 13
-71 8 l-49 -6 -46 83 c-25 46 -73 120 -106 166 -93 125 -315 358 -488 514 -23
21 -42 42 -42 47 0 15 -56 12 -68 -3 -6 -7 -28 -46 -48 -87 -20 -41 -56 -103
-80 -138 -24 -36 -44 -67 -44 -71 0 -8 -62 -40 -190 -97 -58 -25 -117 -55
-132 -65 l-26 -19 -5 37 c-3 21 -5 178 -6 348 0 313 -9 1190 -16 1648 -2 152
0 259 6 275 7 18 7 28 0 30 -7 2 -11 57 -11 153 0 83 4 148 8 145 5 -3 19 6
31 20 13 14 29 23 37 20 8 -3 14 -1 14 4 0 6 -13 10 -30 10 -16 0 -30 -4 -30
-8 0 -5 -7 -9 -15 -9 -8 0 -15 4 -15 9 0 4 -101 8 -225 8 l-225 0 0 -167z
m1955 -3132 c11 -14 30 -34 41 -44 14 -12 25 -37 29 -64 7 -48 -2 -143 -14
-143 -4 0 -14 17 -23 38 -60 140 -108 259 -108 266 0 13 52 -24 75 -53z"/>
<path d="M590 4439 c0 -5 5 -18 12 -29 10 -16 9 -23 -12 -45 -20 -21 -22 -28
-10 -35 11 -7 11 -12 2 -23 -10 -12 -9 -16 3 -21 8 -3 22 -3 30 0 13 5 13 8 0
21 -19 19 -19 33 0 33 18 0 20 17 3 22 -8 3 -6 7 5 11 9 3 16 3 15 -1 -5 -17
37 -92 51 -92 13 -1 13 -3 -2 -11 -17 -10 -16 -12 7 -30 32 -25 33 -25 31 16
0 19 3 44 8 57 7 19 10 20 18 8 7 -11 8 -6 3 15 l-6 30 22 -21 c12 -12 23 -33
23 -47 1 -14 6 -23 11 -20 5 3 6 0 4 -8 -3 -8 -18 -14 -36 -13 -27 0 -32 -4
-32 -23 0 -13 4 -23 8 -23 13 0 11 -34 -2 -42 -14 -10 16 -11 39 -2 13 5 14 9
3 15 -10 7 -8 10 9 15 14 4 23 17 27 39 4 19 10 35 14 38 4 2 1 2 -5 1 -7 -2
-13 4 -13 12 0 11 6 14 16 10 9 -3 18 -6 20 -6 2 0 4 -8 4 -17 0 -13 2 -15 8
-5 7 10 14 10 38 -3 16 -8 23 -15 17 -15 -7 0 -13 -4 -13 -10 0 -5 6 -10 14
-10 8 0 16 -5 18 -11 3 -9 10 -9 27 0 18 10 20 15 10 27 -7 9 -8 14 -1 14 6 0
9 9 7 20 -2 11 0 20 4 20 4 0 20 11 35 25 14 13 26 20 26 15 0 -5 12 -10 28
-12 16 -2 31 -12 37 -25 5 -13 18 -23 27 -23 17 0 17 -2 -1 -32 -20 -37 -57
-49 -67 -23 -6 13 -8 14 -15 3 -18 -27 -10 -40 18 -33 22 5 25 4 14 -8 -6 -8
-11 -19 -10 -23 3 -21 -2 -34 -23 -53 -16 -16 -25 -18 -35 -10 -7 6 -13 18
-13 25 0 8 -9 14 -20 14 -12 0 -20 7 -20 16 0 13 -3 14 -14 5 -19 -16 -49 -2
-43 20 3 11 1 19 -4 19 -5 0 -9 -4 -9 -10 0 -5 -7 -10 -15 -10 -8 0 -15 -4
-15 -10 0 -5 -16 -10 -35 -10 -19 0 -35 -4 -35 -10 0 -5 9 -10 20 -10 11 0 20
-4 20 -10 0 -5 -3 -9 -7 -9 -32 5 -53 -4 -65 -28 -15 -32 -12 -87 4 -77 7 5 9
-1 5 -18 -9 -35 12 -52 47 -38 14 5 26 14 26 20 0 5 7 10 15 10 9 0 12 -6 9
-15 -4 -8 -1 -15 5 -15 9 0 14 12 26 72 1 9 -2 19 -9 22 -6 2 -4 5 5 5 23 1
50 -32 47 -60 -3 -22 0 -23 50 -22 28 1 52 -2 52 -5 -1 -16 -39 -56 -47 -48
-4 5 -2 11 5 13 6 3 12 12 12 20 0 13 -3 13 -25 -1 -15 -10 -25 -12 -25 -6 0
6 -5 8 -12 3 -7 -4 -35 -8 -62 -9 -39 -1 -54 -7 -68 -24 -15 -19 -21 -21 -31
-10 -9 10 -9 11 0 6 9 -5 11 -2 7 9 -5 12 -9 13 -20 4 -19 -15 -18 -39 1 -39
9 0 15 -9 15 -23 0 -20 5 -24 30 -24 36 0 38 7 8 26 l-22 14 23 18 c32 26 42
24 36 -9 -4 -27 -3 -28 30 -24 19 2 35 9 35 14 0 6 7 8 15 4 9 -3 15 0 15 9 0
8 5 15 10 15 6 0 10 -5 10 -11 0 -6 9 -8 20 -4 28 9 25 -7 -6 -38 -14 -14 -23
-31 -19 -37 3 -5 -1 -13 -10 -16 -10 -4 -15 -17 -13 -40 1 -23 -4 -38 -16 -47
-13 -10 -16 -20 -12 -35 4 -12 11 -22 15 -22 6 0 8 -63 2 -78 -3 -9 -41 21
-41 33 0 8 -4 15 -10 15 -5 0 -10 -7 -10 -15 0 -8 4 -15 9 -15 5 0 11 -9 14
-20 6 -22 46 -28 48 -7 1 15 27 -113 34 -168 3 -22 7 -51 10 -65 2 -14 7 -56
10 -95 3 -38 10 -86 15 -105 4 -19 8 -47 8 -61 0 -21 -4 -25 -20 -21 -22 5
-61 -26 -54 -44 3 -7 -1 -17 -8 -23 -14 -11 -15 -39 -2 -59 4 -6 4 -17 0 -23
-3 -6 -1 -30 5 -53 36 -124 67 -216 74 -216 4 0 7 -5 7 -11 0 -6 7 -18 16 -26
10 -10 13 -25 9 -40 -4 -19 0 -25 21 -33 19 -8 24 -15 19 -28 -13 -31 -10 -46
8 -50 30 -6 47 16 36 45 -5 14 -7 33 -4 43 9 28 -5 51 -26 45 -23 -8 -25 11
-3 23 13 7 14 11 4 17 -9 5 -5 14 15 29 16 13 24 27 20 36 -8 21 -76 50 -102
44 -17 -5 -22 0 -28 26 -4 18 -4 66 0 106 6 70 8 73 27 63 11 -6 22 -8 26 -5
3 3 0 6 -6 6 -7 0 -12 9 -12 20 0 23 8 25 34 5 13 -10 16 -20 11 -32 -18 -40
-10 -74 22 -103 28 -26 31 -34 26 -65 -4 -27 -2 -36 11 -41 10 -4 21 -3 25 2
4 5 2 63 -5 129 -7 66 -13 156 -13 200 -1 78 13 155 27 155 11 0 31 -50 26
-64 -8 -22 -10 -226 -1 -226 4 0 7 -13 7 -30 0 -22 4 -28 15 -24 11 4 15 -1
16 -17 0 -23 1 -23 9 -4 7 16 9 17 9 3 1 -21 47 -20 60 1 7 11 13 10 31 -7 13
-12 27 -19 31 -16 4 2 19 -7 33 -21 23 -23 32 -25 73 -20 25 3 53 11 60 17 8
6 33 15 56 19 23 4 59 12 80 17 58 15 54 -4 -8 -34 -32 -14 -60 -35 -65 -48
-13 -33 -69 -86 -91 -86 -10 0 -19 -4 -19 -10 0 -15 -35 -29 -50 -20 -12 7
-12 11 1 27 13 17 13 17 -11 2 -14 -9 -26 -26 -28 -37 -5 -34 -32 -35 -73 -2
-21 16 -44 30 -52 30 -20 0 -40 -27 -31 -41 4 -7 3 -9 -3 -6 -19 12 -34 -51
-23 -99 6 -24 10 -47 9 -51 -1 -5 -1 -15 1 -23 1 -11 4 -10 11 5 7 15 8 13 3
-10 -9 -39 -9 -54 1 -89 7 -27 6 -29 -17 -23 -23 6 -26 3 -31 -26 -4 -23 4
-52 30 -107 29 -61 54 -93 132 -170 81 -80 238 -210 254 -210 3 0 31 -16 63
-35 57 -35 94 -44 94 -25 0 6 8 10 19 10 10 0 24 6 30 14 7 8 27 14 45 14 19
0 50 8 70 17 35 17 57 52 39 64 -6 3 -10 14 -10 23 0 10 2 16 5 13 6 -6 32 21
32 34 0 6 -17 11 -37 11 -37 0 -43 3 -124 73 -15 13 -31 21 -38 19 -6 -2 -11
1 -11 7 0 6 18 15 40 21 28 8 40 16 40 29 0 29 -31 83 -44 78 -29 -12 -38 9
-18 44 16 30 24 34 58 34 38 0 39 1 36 32 -2 31 0 33 36 39 46 7 80 30 66 44
-6 6 -40 13 -77 17 -37 3 -72 12 -78 19 -6 8 -17 14 -24 14 -23 0 -37 26 -21
39 11 9 15 9 19 -1 4 -10 8 -9 18 3 14 17 68 27 176 32 47 3 67 -1 85 -14 20
-16 21 -21 10 -40 -16 -25 -10 -34 15 -21 78 42 146 50 163 21 11 -17 50 45
50 80 0 18 -6 46 -14 65 -24 57 -98 165 -118 172 -10 3 -28 15 -38 27 l-20 21
0 -50 c0 -43 7 -61 50 -129 27 -44 50 -84 50 -91 0 -6 -11 -19 -25 -28 -23
-15 -29 -15 -81 0 -37 10 -75 14 -117 10 -94 -8 -149 -6 -184 5 -29 9 -32 13
-22 31 6 11 33 30 59 42 68 29 79 53 48 100 -14 20 -28 33 -31 29 -4 -3 -7 0
-7 8 0 8 5 20 11 26 20 20 17 150 -7 344 -5 47 -10 57 -33 67 -14 7 -41 22
-58 34 -83 58 -96 64 -143 57 -43 -6 -51 -3 -64 26 -3 6 -8 4 -14 -3 -8 -12
-14 -11 -39 1 -37 20 -48 34 -52 71 -2 19 1 26 8 21 6 -3 24 4 39 17 26 22 26
24 10 41 -31 30 -78 16 -78 -25 0 -10 -4 -18 -9 -18 -4 0 -19 -10 -32 -22 -14
-13 -29 -23 -34 -23 -6 0 -11 -15 -13 -32 -3 -31 -1 -33 27 -33 17 0 31 -4 31
-8 0 -11 -59 -44 -68 -38 -5 3 -22 -2 -38 -10 -18 -10 -30 -11 -32 -5 -7 21
-19 11 -15 -13 4 -17 0 -25 -16 -29 -25 -6 -48 17 -34 36 6 6 16 37 23 67 17
74 28 95 56 111 13 7 24 20 24 29 0 19 49 76 62 73 4 -2 8 5 8 16 0 14 6 17
25 13 15 -2 25 0 25 7 0 6 -9 11 -20 11 -24 0 -25 8 -4 38 9 14 26 22 43 22
16 0 34 7 42 16 9 11 25 15 50 12 33 -3 37 -1 37 20 0 13 5 34 11 46 13 23 67
36 214 51 31 4 55 10 52 15 -10 17 56 52 113 59 72 10 266 7 313 -5 37 -9 109
-67 128 -103 6 -11 23 -57 37 -103 14 -46 44 -137 67 -203 43 -127 41 -104 46
-387 1 -36 14 -35 48 2 46 52 71 39 91 -45 13 -52 8 -106 -14 -140 -7 -11 -22
-55 -33 -98 -12 -44 -28 -91 -35 -106 -8 -14 -17 -48 -21 -74 -9 -56 -38 -97
-70 -97 -18 0 -24 -7 -30 -37 -11 -62 -59 -154 -122 -238 -70 -92 -156 -248
-178 -323 -14 -45 -14 -57 0 -108 8 -32 15 -78 15 -102 0 -87 40 -290 71 -357
34 -75 34 -76 12 -68 -14 6 -14 3 3 -25 10 -18 21 -32 25 -32 17 0 159 -333
159 -373 0 -5 -9 0 -20 13 -11 13 -20 19 -20 14 0 -6 4 -14 8 -19 5 -6 15 -26
22 -45 7 -19 20 -44 29 -54 9 -11 11 -16 4 -13 -14 9 -21 -10 -15 -40 2 -13
11 -23 19 -23 10 0 14 -9 12 -27 -1 -16 1 -36 5 -45 4 -9 5 -21 2 -27 -4 -5 2
-12 11 -14 17 -4 17 -5 0 -6 -20 -1 -37 35 -37 80 0 17 -6 32 -15 35 -8 4 -15
14 -15 23 0 9 -9 42 -20 74 -11 31 -20 72 -20 91 0 19 -5 38 -10 41 -6 4 -8
11 -5 16 4 5 2 9 -2 9 -5 0 -14 12 -20 28 l-10 27 -8 -38 c-6 -30 -3 -49 13
-85 12 -26 26 -71 31 -99 6 -29 26 -92 45 -141 19 -48 38 -100 42 -116 3 -15
9 -25 11 -22 13 13 48 -41 92 -145 27 -63 60 -126 74 -140 15 -16 29 -47 37
-82 l11 -57 245 0 244 0 0 2225 0 2225 -634 0 c-349 0 -642 -3 -651 -6 -10 -4
-12 -9 -7 -13 15 -9 26 -61 13 -61 -6 0 -8 7 -5 15 9 22 -57 20 -87 -3 -29
-23 -83 -34 -96 -21 -6 6 -14 5 -23 -6 -26 -31 -40 -18 -40 40 l0 55 -85 0
-85 0 0 -45 c0 -25 -4 -45 -10 -45 -5 0 -9 5 -7 11 1 6 -7 16 -18 22 -11 7
-24 17 -28 22 -4 6 -5 -3 -1 -18 5 -23 3 -29 -15 -34 -22 -5 -24 -28 -4 -28
20 0 28 -16 13 -25 -22 -14 -40 -12 -40 5 0 8 -6 15 -13 15 -15 0 -41 49 -32
58 3 3 11 0 17 -6 7 -7 20 -12 29 -12 21 0 14 35 -12 61 -18 18 -45 19 -444
18 -263 0 -425 -4 -425 -10z m210 -19 c0 -5 -4 -10 -10 -10 -5 0 -10 5 -10 10
0 6 5 10 10 10 6 0 10 -4 10 -10z m447 4 c-3 -3 -12 -4 -19 -1 -8 3 -5 6 6 6
11 1 17 -2 13 -5z m52 -44 c1 12 3 13 10 1 5 -7 14 -11 20 -7 7 5 9 1 5 -8 -4
-11 0 -16 10 -16 9 0 16 -4 16 -8 0 -4 -17 -6 -37 -4 -35 3 -37 2 -19 -12 10
-8 24 -26 30 -38 8 -16 19 -22 36 -21 l25 3 -25 -11 c-14 -5 -28 -17 -33 -25
-4 -8 -15 -14 -22 -14 -8 0 -15 -8 -15 -18 0 -19 -18 -42 -32 -42 -4 0 -8 7
-8 15 0 8 -4 15 -10 15 -5 0 -10 -7 -10 -15 0 -25 -57 -19 -71 8 -7 12 -17 26
-23 30 -6 5 -1 5 12 2 23 -7 32 10 10 18 -9 3 -5 13 11 31 14 14 20 26 15 26
-14 0 -10 53 4 58 7 2 10 8 6 13 -3 5 2 9 10 9 10 0 13 -6 9 -17 -4 -11 -3
-14 5 -9 7 4 12 14 12 22 0 8 8 14 19 14 14 0 17 6 15 28 -4 24 -2 23 10 -8 8
-19 15 -28 15 -20z m-509 -20 c0 -5 -4 -10 -10 -10 -5 0 -10 5 -10 10 0 6 5
10 10 10 6 0 10 -4 10 -10z m-60 -20 c0 -5 -2 -10 -4 -10 -3 0 -8 5 -11 10 -3
6 -1 10 4 10 6 0 11 -4 11 -10z m815 1 c3 -5 1 -12 -4 -15 -5 -3 -11 1 -15 9
-6 16 9 21 19 6z m-725 -11 c0 -5 -5 -10 -11 -10 -5 0 -7 5 -4 10 3 6 8 10 11
10 2 0 4 -4 4 -10z m593 -45 c16 -22 16 -25 2 -25 -9 0 -13 5 -10 10 3 6 -1
13 -9 16 -9 3 -16 10 -16 15 0 16 15 9 33 -16z m-606 -51 c-3 -3 -12 -4 -19
-1 -8 3 -5 6 6 6 11 1 17 -2 13 -5z m343 -69 c0 -21 28 -39 43 -27 10 8 13 6
14 -7 1 -14 -4 -17 -18 -14 -15 4 -18 2 -13 -11 4 -11 1 -16 -10 -16 -19 0
-57 75 -49 96 4 11 9 12 19 3 8 -6 14 -17 14 -24z m-200 -43 c0 -13 -39 -46
-46 -40 -8 9 19 48 33 48 7 0 13 -4 13 -8z m176 -31 c20 -37 20 -40 4 -54 -16
-14 -19 -12 -32 22 -13 35 -13 71 0 71 4 0 16 -18 28 -39z m-127 5 c15 -18 -4
-32 -23 -17 -7 6 -17 7 -22 3 -4 -4 -2 1 5 11 16 21 25 21 40 3z m-179 -16 c0
-5 -4 -10 -10 -10 -5 0 -10 5 -10 10 0 6 5 10 10 10 6 0 10 -4 10 -10z m150
-20 c0 -5 -5 -10 -11 -10 -5 0 -7 5 -4 10 3 6 8 10 11 10 2 0 4 -4 4 -10z
m130 -61 c0 -6 -4 -7 -10 -4 -5 3 -10 11 -10 16 0 6 5 7 10 4 6 -3 10 -11 10
-16z m-154 -84 c-10 -8 -23 -12 -29 -8 -11 7 12 23 33 23 12 -1 11 -4 -4 -15z
m695 -749 l34 -14 -29 -12 c-17 -6 -41 -10 -55 -8 -34 4 -40 35 -9 41 13 2 24
5 24 6 1 0 17 -5 35 -13z m-321 -16 c0 -5 -4 -10 -10 -10 -5 0 -10 5 -10 10 0
6 5 10 10 10 6 0 10 -4 10 -10z m380 -84 c0 -3 -4 -8 -10 -11 -5 -3 -10 -1
-10 4 0 6 5 11 10 11 6 0 10 -2 10 -4z m-153 -12 c-3 -3 -12 -4 -19 -1 -8 3
-5 6 6 6 11 1 17 -2 13 -5z m-556 -171 c-9 -16 -10 -16 -11 -1 0 9 3 25 7 35
7 16 8 17 11 1 2 -10 -1 -25 -7 -35z m843 -144 c-6 -11 -31 -12 -37 -1 -3 4 6
8 19 8 13 1 21 -2 18 -7z m-744 -64 c10 -12 10 -15 -4 -15 -9 0 -16 7 -16 15
0 8 2 15 4 15 2 0 9 -7 16 -15z m215 -143 c-9 -9 -25 19 -24 43 0 16 2 15 15
-8 9 -16 13 -32 9 -35z m100 -72 c3 -5 15 -10 27 -10 15 0 18 -4 13 -17 -4
-10 -10 -24 -13 -32 -4 -10 -1 -12 8 -6 10 6 12 4 7 -9 -4 -11 -3 -15 4 -10 6
3 8 17 4 31 -5 20 -3 24 9 20 10 -4 16 -1 16 7 0 12 7 12 43 1 53 -15 63 -51
23 -83 -14 -10 -23 -22 -19 -26 3 -3 -14 -4 -38 -1 -28 3 -37 2 -25 -3 18 -8
18 -9 -5 -25 -13 -9 -18 -17 -11 -17 6 0 12 -7 12 -15 0 -8 -5 -15 -11 -15
-18 0 -69 54 -69 72 0 10 -5 18 -11 18 -18 0 -41 68 -29 90 17 32 54 49 65 30z
m191 -140 c8 0 17 -7 20 -15 4 -8 10 -13 14 -10 16 10 41 -46 38 -83 -3 -34
-21 -48 -24 -19 -1 6 -2 18 -3 25 0 6 -7 12 -14 12 -8 0 -22 9 -32 20 -10 11
-24 20 -32 20 -7 0 -13 10 -13 23 0 25 22 55 28 37 2 -5 10 -10 18 -10z"/>
<path d="M1210 4300 c0 -5 5 -10 10 -10 6 0 10 5 10 10 0 6 -4 10 -10 10 -5 0
-10 -4 -10 -10z"/>
<path d="M1250 4283 c8 -3 20 -9 25 -13 6 -5 16 -2 23 6 11 12 7 14 -25 13
-21 0 -31 -3 -23 -6z"/>
<path d="M1233 4241 c-5 -3 -12 -14 -16 -23 -5 -14 -1 -18 14 -18 18 0 49 21
49 33 0 8 -38 15 -47 8z"/>
<path d="M1290 4240 c0 -5 5 -10 10 -10 6 0 10 5 10 10 0 6 -4 10 -10 10 -5 0
-10 -4 -10 -10z"/>
<path d="M550 4259 c0 -5 5 -7 10 -4 6 3 10 8 10 11 0 2 -4 4 -10 4 -5 0 -10
-5 -10 -11z"/>
<path d="M1000 4172 c0 -14 11 -21 26 -15 8 3 11 9 8 14 -7 11 -34 12 -34 1z"/>
<path d="M715 4110 c4 -6 11 -8 16 -5 14 9 11 15 -7 15 -8 0 -12 -5 -9 -10z"/>
<path d="M920 3850 c0 -5 7 -10 15 -10 8 0 15 5 15 10 0 6 -7 10 -15 10 -8 0
-15 -4 -15 -10z"/>
<path d="M860 3779 c0 -5 5 -7 10 -4 6 3 10 8 10 11 0 2 -4 4 -10 4 -5 0 -10
-5 -10 -11z"/>
<path d="M790 3679 c0 -5 5 -7 10 -4 6 3 10 8 10 11 0 2 -4 4 -10 4 -5 0 -10
-5 -10 -11z"/>
<path d="M927 3633 c-4 -3 -7 -11 -7 -17 0 -6 5 -5 12 2 6 6 9 14 7 17 -3 3
-9 2 -12 -2z"/>
<path d="M781 3613 c-1 -7 -6 -12 -13 -10 -6 1 -14 -7 -16 -18 -4 -17 -2 -18
12 -6 14 12 16 11 16 -5 0 -14 3 -15 12 -6 8 8 8 17 0 34 -6 13 -11 17 -11 11z"/>
<path d="M1622 3385 c-7 -14 -12 -32 -12 -40 0 -8 -6 -12 -14 -9 -8 3 -17 1
-21 -5 -4 -7 4 -11 19 -11 19 0 27 7 32 25 3 14 10 25 15 25 5 0 9 9 9 20 0
28 -15 25 -28 -5z"/>
<path d="M950 3314 c0 -8 5 -12 10 -9 6 3 10 10 10 16 0 5 -4 9 -10 9 -5 0
-10 -7 -10 -16z"/>
<path d="M2140 3233 c-31 -6 -42 -21 -35 -49 3 -12 -2 -35 -10 -50 -19 -37
-19 -53 1 -61 8 -3 14 -15 13 -27 -3 -46 3 -56 48 -83 50 -29 110 -38 158 -24
17 5 23 10 14 10 -28 2 -42 28 -35 64 13 67 50 84 74 33 10 -22 87 -54 100
-42 12 12 -55 69 -120 102 -71 36 -85 59 -43 70 85 21 -73 76 -165 57z"/>
<path d="M810 2820 c0 -13 11 -13 30 0 12 8 11 10 -7 10 -13 0 -23 -4 -23 -10z"/>
<path d="M1257 2781 c-4 -17 -3 -21 5 -13 5 5 8 16 6 23 -3 8 -7 3 -11 -10z"/>
<path d="M734 2754 c3 -9 6 -17 6 -20 0 -2 7 -1 15 2 12 5 13 10 4 20 -16 19
-33 18 -25 -2z"/>
<path d="M531 2744 c0 -11 3 -14 6 -6 3 7 2 16 -1 19 -3 4 -6 -2 -5 -13z"/>
<path d="M665 2720 c-19 -8 -19 -9 3 -9 12 -1 22 4 22 9 0 6 -1 10 -2 9 -2 0
-12 -4 -23 -9z"/>
<path d="M1252 2710 c0 -14 2 -19 5 -12 2 6 2 18 0 25 -3 6 -5 1 -5 -13z"/>
<path d="M2100 2689 c0 -5 5 -7 10 -4 6 3 10 8 10 11 0 2 -4 4 -10 4 -5 0 -10
-5 -10 -11z"/>
<path d="M961 2533 c-13 -14 -11 -18 12 -35 18 -13 27 -29 27 -48 0 -15 7 -33
15 -40 18 -15 13 -23 -18 -26 -40 -3 -59 14 -52 47 4 16 2 29 -3 29 -5 0 -12
-12 -15 -27 -7 -33 21 -63 59 -63 13 0 24 -4 24 -8 0 -5 9 -18 20 -30 24 -25
60 -29 60 -7 0 8 4 15 9 15 5 0 8 11 7 25 0 14 -7 25 -13 25 -8 0 -13 13 -13
29 0 34 -9 61 -20 61 -5 0 -6 -9 -3 -20 3 -11 1 -20 -3 -20 -19 0 -30 16 -30
40 0 18 -5 24 -17 22 -9 -2 -17 2 -17 8 0 5 5 10 11 10 6 0 4 7 -5 15 -18 18
-18 18 -35 -2z m108 -183 c6 8 13 11 17 8 9 -10 -24 -41 -36 -33 -5 3 -10 14
-10 23 0 15 2 15 10 2 9 -13 11 -13 19 0z"/>
<path d="M870 2475 c0 -16 16 -20 24 -6 3 5 -1 11 -9 15 -9 3 -15 0 -15 -9z"/>
<path d="M2085 2390 c-3 -5 1 -10 9 -10 8 0 18 5 21 10 3 6 -1 10 -9 10 -8 0
-18 -4 -21 -10z"/>
<path d="M1210 2360 c0 -5 5 -10 10 -10 6 0 10 5 10 10 0 6 -4 10 -10 10 -5 0
-10 -4 -10 -10z"/>
<path d="M1070 2280 c-9 -6 -10 -10 -3 -10 6 0 15 5 18 10 8 12 4 12 -15 0z"/>
<path d="M913 2253 c9 -2 23 -2 30 0 6 3 -1 5 -18 5 -16 0 -22 -2 -12 -5z"/>
<path d="M2180 1632 c0 -6 -18 -30 -40 -52 -22 -22 -40 -43 -40 -45 0 -3 10
-5 23 -5 18 0 29 11 47 50 13 27 20 53 17 57 -4 3 -7 1 -7 -5z"/>
<path d="M1985 1490 c-3 -6 2 -13 12 -17 28 -10 97 -56 106 -71 5 -7 27 -20
50 -29 22 -9 35 -19 29 -21 -7 -2 -12 -8 -12 -14 0 -11 50 -58 62 -58 4 0 14
-13 23 -30 16 -31 61 -67 71 -57 4 3 -3 30 -14 59 -11 29 -26 73 -34 98 -22
76 -56 104 -153 129 -93 23 -131 26 -140 11z"/>
<path d="M2240 1163 c0 -22 33 -110 51 -140 12 -20 23 -52 25 -72 2 -20 3 -38
3 -41 1 -5 42 -6 62 -1 15 3 1 71 -25 126 -29 60 -39 84 -50 118 -3 11 -16 17
-36 17 -16 0 -30 -3 -30 -7z"/>
<path d="M2247 653 c-14 -13 -7 -71 9 -77 24 -9 24 -9 24 28 0 33 -20 62 -33
49z"/>
<path d="M2675 71 c3 -18 5 -42 5 -52 0 -11 5 -19 10 -19 14 0 11 40 -6 75
l-14 30 5 -34z"/>
</g>
</svg>
