<?xml version="1.0" encoding="utf-8"?>
<!-- Generator: Adobe Illustrator 16.0.0, SVG Export Plug-In . SVG Version: 6.00 Build 0)  -->
<!DOCTYPE svg PUBLIC "-//W3C//DTD SVG 1.1//EN" "http://www.w3.org/Graphics/SVG/1.1/DTD/svg11.dtd">
<svg version="1.1" id="Layer_1" xmlns="http://www.w3.org/2000/svg" xmlns:xlink="http://www.w3.org/1999/xlink" x="0px" y="0px"
	 width="160px" height="118px" viewBox="0 0 160 118" enable-background="new 0 0 160 118" xml:space="preserve">
<g>
	<g>
		<rect fill="#2C2B5C" width="160" height="118"/>
		<rect x="158.958" fill="#5B5A81" width="1.042" height="118"/>
	</g>
</g>
<g>
	<g>
		<path fill="#FFFFFF" d="M98.622,25.793v-6.361H54.098v34.982c0,0,0,6.361,6.361,6.361h39.753c0,0,4.771-0.099,4.771-6.361V25.793
			H98.622z M60.459,57.596c-3.181,0-3.181-3.182-3.181-3.182V22.612h38.163v31.802c0,1.465,0.452,2.479,1.075,3.182H60.459z"/>
		<rect x="60.459" y="28.973" fill="#FFFFFF" width="31.802" height="3.18"/>
		<rect x="77.95" y="48.054" fill="#FFFFFF" width="11.131" height="3.182"/>
		<rect x="77.95" y="41.693" fill="#FFFFFF" width="14.311" height="3.181"/>
		<rect x="77.95" y="35.334" fill="#FFFFFF" width="14.311" height="3.179"/>
		<rect x="60.459" y="35.334" fill="#FFFFFF" width="14.311" height="15.901"/>
	</g>
</g>
<g>
	<path fill="#FFFFFF" d="M50.787,98.693V80.521h2.561l5.824,9.194c1.348,2.13,2.399,4.044,3.262,5.905l0.054-0.027
		c-0.216-2.427-0.27-4.638-0.27-7.469v-7.604h2.211v18.173h-2.373l-5.77-9.221c-1.267-2.022-2.48-4.099-3.397-6.067l-0.081,0.027
		c0.135,2.292,0.189,4.476,0.189,7.495v7.766H50.787z"/>
	<path fill="#FFFFFF" d="M69.768,92.6c0.054,3.209,2.103,4.53,4.476,4.53c1.699,0,2.723-0.297,3.613-0.675l0.405,1.699
		c-0.836,0.377-2.265,0.809-4.341,0.809c-4.017,0-6.417-2.643-6.417-6.579s2.319-7.037,6.121-7.037c4.26,0,5.393,3.748,5.393,6.147
		c0,0.485-0.054,0.863-0.081,1.105H69.768z M76.724,90.901c0.027-1.51-0.62-3.855-3.29-3.855c-2.399,0-3.451,2.211-3.64,3.855
		H76.724z"/>
	<path fill="#FFFFFF" d="M82.897,85.644l1.726,6.633c0.377,1.456,0.728,2.804,0.971,4.152h0.081
		c0.296-1.321,0.728-2.724,1.159-4.125l2.13-6.66h1.995l2.022,6.525c0.485,1.563,0.862,2.938,1.159,4.26h0.081
		c0.216-1.321,0.566-2.696,0.997-4.233l1.86-6.552h2.346l-4.206,13.05h-2.156l-1.996-6.229c-0.458-1.456-0.835-2.75-1.159-4.287
		h-0.054c-0.323,1.564-0.728,2.912-1.187,4.314l-2.103,6.201h-2.157l-3.937-13.05H82.897z"/>
	<path fill="#FFFFFF" d="M101.312,96.267c0.701,0.459,1.941,0.943,3.128,0.943c1.726,0,2.534-0.862,2.534-1.94
		c0-1.133-0.674-1.753-2.427-2.4c-2.346-0.836-3.451-2.13-3.451-3.693c0-2.104,1.699-3.829,4.503-3.829
		c1.321,0,2.48,0.378,3.209,0.81l-0.594,1.726c-0.512-0.324-1.456-0.755-2.669-0.755c-1.402,0-2.185,0.809-2.185,1.779
		c0,1.078,0.782,1.563,2.481,2.211c2.265,0.862,3.424,1.995,3.424,3.937c0,2.292-1.779,3.909-4.88,3.909
		c-1.43,0-2.751-0.351-3.667-0.89L101.312,96.267z"/>
</g>
</svg>
