<?xml version="1.0" encoding="utf-8"?>
<!-- Generator: Adobe Illustrator 16.0.0, SVG Export Plug-In . SVG Version: 6.00 Build 0)  -->
<!DOCTYPE svg PUBLIC "-//W3C//DTD SVG 1.1//EN" "http://www.w3.org/Graphics/SVG/1.1/DTD/svg11.dtd">
<svg version="1.1" id="Layer_1" xmlns="http://www.w3.org/2000/svg" xmlns:xlink="http://www.w3.org/1999/xlink" x="0px" y="0px"
	 width="533.333px" height="118px" viewBox="0 0 533.333 118" enable-background="new 0 0 533.333 118" xml:space="preserve">
<path fill="#EA3B25" d="M533.333,115c0,1.658-1.343,3-3,3H3c-1.657,0-3-1.342-3-3V3c0-1.657,1.343-3,3-3h527.333
	c1.657,0,3,1.343,3,3V115z"/>
<g>
	<path fill="#F6F9FB" d="M215,51.469c1.384-0.292,3.569-0.511,5.792-0.511c3.168,0,5.208,0.547,6.738,1.785
		c1.275,0.947,2.04,2.404,2.04,4.334c0,2.368-1.566,4.444-4.152,5.391v0.073c2.331,0.583,5.063,2.513,5.063,6.155
		c0,2.112-0.837,3.715-2.076,4.917c-1.712,1.566-4.48,2.295-8.487,2.295c-2.185,0-3.861-0.146-4.917-0.292V51.469z M218.169,61.522
		h2.877c3.351,0,5.317-1.749,5.317-4.116c0-2.877-2.185-4.007-5.391-4.007c-1.457,0-2.294,0.109-2.804,0.219V61.522z
		 M218.169,73.286c0.619,0.109,1.53,0.146,2.659,0.146c3.278,0,6.301-1.202,6.301-4.771c0-3.352-2.877-4.735-6.337-4.735h-2.623
		V73.286z"/>
	<path fill="#F6F9FB" d="M237.91,51.141V75.69h-3.169V51.141H237.91z"/>
	<path fill="#F6F9FB" d="M248.108,53.836h-7.467v-2.695h18.175v2.695h-7.503V75.69h-3.205V53.836z"/>
	<path fill="#F6F9FB" d="M260.894,71.83c1.42,0.874,3.496,1.603,5.682,1.603c3.241,0,5.136-1.712,5.136-4.189
		c0-2.294-1.312-3.605-4.626-4.88c-4.007-1.421-6.483-3.497-6.483-6.957c0-3.824,3.169-6.665,7.94-6.665
		c2.513,0,4.334,0.582,5.427,1.201l-0.874,2.587c-0.802-0.438-2.44-1.166-4.662-1.166c-3.351,0-4.626,2.003-4.626,3.679
		c0,2.295,1.493,3.424,4.881,4.735c4.152,1.603,6.265,3.605,6.265,7.211c0,3.788-2.805,7.066-8.596,7.066
		c-2.367,0-4.953-0.692-6.265-1.566L260.894,71.83z"/>
	<path fill="#F6F9FB" d="M283.257,67.968l-2.55,7.722h-3.278l8.341-24.549h3.825l8.377,24.549h-3.388l-2.622-7.722H283.257z
		 M291.307,65.492l-2.404-7.066c-0.547-1.603-0.91-3.06-1.274-4.479h-0.073c-0.364,1.457-0.765,2.95-1.238,4.443l-2.404,7.103
		H291.307z"/>
	<path fill="#F6F9FB" d="M305.547,67.968l-2.55,7.722h-3.278l8.341-24.549h3.825l8.377,24.549h-3.388l-2.622-7.722H305.547z
		 M313.597,65.492l-2.404-7.066c-0.547-1.603-0.91-3.06-1.274-4.479h-0.073c-0.364,1.457-0.765,2.95-1.238,4.443l-2.404,7.103
		H313.597z"/>
</g>
</svg>
