<?xml version="1.0" encoding="utf-8"?>
<!-- Generator: Adobe Illustrator 16.0.0, SVG Export Plug-In . SVG Version: 6.00 Build 0)  -->
<!DOCTYPE svg PUBLIC "-//W3C//DTD SVG 1.1//EN" "http://www.w3.org/Graphics/SVG/1.1/DTD/svg11.dtd">
<svg version="1.1" id="Layer_1" xmlns="http://www.w3.org/2000/svg" xmlns:xlink="http://www.w3.org/1999/xlink" x="0px" y="0px"
	 width="533.333px" height="118px" viewBox="0 0 533.333 118" enable-background="new 0 0 533.333 118" xml:space="preserve">
<path fill="#2C2B5C" d="M534.188,115c0,1.658-1.342,3-3,3H3.856c-1.657,0-3-1.342-3-3V3c0-1.656,1.343-3,3-3h527.333
	c1.658,0,3,1.344,3,3V115z"/>
<g>
	<path fill="#F6F9FB" d="M88.033,49.47c1.384-0.292,3.569-0.511,5.792-0.511c3.168,0,5.208,0.547,6.738,1.785
		c1.275,0.947,2.04,2.404,2.04,4.334c0,2.368-1.566,4.444-4.152,5.391v0.073c2.331,0.583,5.063,2.513,5.063,6.155
		c0,2.112-0.837,3.715-2.076,4.917c-1.712,1.566-4.48,2.295-8.487,2.295c-2.185,0-3.861-0.146-4.917-0.292V49.47z M91.202,59.522
		h2.877c3.351,0,5.317-1.749,5.317-4.116c0-2.877-2.185-4.007-5.391-4.007c-1.457,0-2.294,0.109-2.804,0.219V59.522z M91.202,71.286
		c0.619,0.109,1.53,0.146,2.659,0.146c3.278,0,6.301-1.202,6.301-4.771c0-3.352-2.877-4.735-6.337-4.735h-2.623V71.286z"/>
	<path fill="#F6F9FB" d="M110.943,49.142V73.69h-3.169V49.142H110.943z"/>
	<path fill="#F6F9FB" d="M121.141,51.837h-7.467v-2.695h18.175v2.695h-7.503V73.69h-3.205V51.837z"/>
	<path fill="#F6F9FB" d="M133.926,69.83c1.42,0.874,3.496,1.603,5.682,1.603c3.241,0,5.136-1.712,5.136-4.189
		c0-2.294-1.312-3.605-4.626-4.88c-4.007-1.421-6.483-3.497-6.483-6.957c0-3.824,3.169-6.665,7.94-6.665
		c2.513,0,4.334,0.582,5.427,1.201l-0.874,2.587c-0.802-0.438-2.44-1.166-4.662-1.166c-3.351,0-4.626,2.003-4.626,3.679
		c0,2.295,1.493,3.424,4.881,4.735c4.152,1.603,6.265,3.605,6.265,7.211c0,3.788-2.805,7.066-8.596,7.066
		c-2.367,0-4.953-0.692-6.265-1.566L133.926,69.83z"/>
	<path fill="#F6F9FB" d="M156.29,65.969l-2.55,7.722h-3.278l8.341-24.549h3.825l8.377,24.549h-3.388l-2.622-7.722H156.29z
		 M164.339,63.492l-2.404-7.066c-0.547-1.603-0.91-3.06-1.274-4.479h-0.073c-0.364,1.457-0.765,2.95-1.238,4.443l-2.404,7.103
		H164.339z"/>
	<path fill="#F6F9FB" d="M178.58,65.969l-2.55,7.722h-3.278l8.341-24.549h3.825l8.377,24.549h-3.388l-2.622-7.722H178.58z
		 M186.629,63.492l-2.404-7.066c-0.547-1.603-0.91-3.06-1.274-4.479h-0.073c-0.364,1.457-0.765,2.95-1.238,4.443l-2.404,7.103
		H186.629z"/>
	<path fill="#F6F9FB" d="M204.623,49.47c1.384-0.292,3.569-0.511,5.791-0.511c3.169,0,5.208,0.547,6.738,1.785
		c1.274,0.947,2.039,2.404,2.039,4.334c0,2.368-1.565,4.444-4.152,5.391v0.073c2.331,0.583,5.063,2.513,5.063,6.155
		c0,2.112-0.838,3.715-2.076,4.917c-1.712,1.566-4.48,2.295-8.486,2.295c-2.186,0-3.861-0.146-4.917-0.292V49.47z M207.791,59.522
		h2.878c3.351,0,5.317-1.749,5.317-4.116c0-2.877-2.186-4.007-5.391-4.007c-1.457,0-2.294,0.109-2.805,0.219V59.522z
		 M207.791,71.286c0.619,0.109,1.53,0.146,2.659,0.146c3.278,0,6.301-1.202,6.301-4.771c0-3.352-2.877-4.735-6.337-4.735h-2.623
		V71.286z"/>
	<path fill="#F6F9FB" d="M243.047,72.598c-1.421,0.51-4.226,1.348-7.54,1.348c-3.715,0-6.774-0.947-9.178-3.241
		c-2.113-2.04-3.424-5.318-3.424-9.143c0.036-7.321,5.063-12.675,13.294-12.675c2.841,0,5.063,0.619,6.119,1.129l-0.765,2.586
		c-1.312-0.583-2.95-1.057-5.428-1.057c-5.973,0-9.87,3.716-9.87,9.871c0,6.229,3.752,9.907,9.47,9.907
		c2.076,0,3.497-0.292,4.226-0.656v-7.32h-4.99v-2.55h8.086V72.598z"/>
	<path fill="#F6F9FB" d="M268.58,62.909c-0.182-3.424-0.4-7.539-0.364-10.599h-0.109c-0.838,2.877-1.857,5.937-3.096,9.324
		l-4.334,11.91h-2.404l-3.97-11.691c-1.166-3.461-2.149-6.63-2.841-9.543h-0.073c-0.073,3.06-0.255,7.175-0.474,10.854
		l-0.655,10.526h-3.023l1.712-24.549h4.043l4.188,11.874c1.021,3.022,1.857,5.718,2.477,8.268h0.109
		c0.619-2.477,1.494-5.172,2.586-8.268l4.371-11.874h4.043l1.529,24.549h-3.096L268.58,62.909z"/>
	<path fill="#F6F9FB" d="M297.608,62.181h-9.543v8.851h10.636v2.659h-13.804V49.142h13.258v2.659h-10.09v7.758h9.543V62.181z"/>
	<path fill="#F6F9FB" d="M303.691,56.062l3.459,9.907c0.584,1.603,1.057,3.06,1.422,4.517h0.107
		c0.402-1.457,0.912-2.914,1.494-4.517l3.424-9.907h3.352l-6.922,17.629h-3.059l-6.701-17.629H303.691z"/>
	<path fill="#F6F9FB" d="M321.393,65.459c0.072,4.334,2.84,6.119,6.045,6.119c2.295,0,3.68-0.4,4.881-0.911l0.547,2.295
		c-1.129,0.51-3.059,1.093-5.863,1.093c-5.428,0-8.67-3.569-8.67-8.887c0-5.318,3.133-9.507,8.27-9.507
		c5.754,0,7.283,5.063,7.283,8.305c0,0.655-0.072,1.165-0.109,1.493H321.393z M330.789,63.164c0.037-2.039-0.838-5.208-4.443-5.208
		c-3.242,0-4.662,2.986-4.916,5.208H330.789z"/>
	<path fill="#F6F9FB" d="M337.855,60.833c0-1.821-0.037-3.314-0.146-4.771h2.842l0.182,2.914h0.072
		c0.875-1.676,2.914-3.314,5.828-3.314c2.439,0,6.229,1.457,6.229,7.503V73.69h-3.205V63.528c0-2.841-1.057-5.208-4.08-5.208
		c-2.113,0-3.752,1.493-4.297,3.277c-0.146,0.401-0.219,0.947-0.219,1.494V73.69h-3.205V60.833z"/>
	<path fill="#F6F9FB" d="M361.785,50.999v5.063h4.59v2.44h-4.59v9.507c0,2.185,0.619,3.424,2.404,3.424
		c0.838,0,1.457-0.109,1.857-0.219l0.145,2.403c-0.619,0.255-1.602,0.438-2.84,0.438c-1.494,0-2.695-0.474-3.461-1.348
		c-0.91-0.947-1.238-2.514-1.238-4.589v-9.616h-2.732v-2.44h2.732v-4.225L361.785,50.999z"/>
	<path fill="#F6F9FB" d="M376.68,73.69v-1.967l2.514-2.44c6.047-5.755,8.777-8.814,8.814-12.384c0-2.403-1.166-4.626-4.699-4.626
		c-2.148,0-3.934,1.093-5.025,2.004l-1.02-2.259c1.639-1.384,3.969-2.403,6.701-2.403c5.1,0,7.248,3.496,7.248,6.884
		c0,4.37-3.168,7.903-8.158,12.711l-1.895,1.749v0.072h10.637v2.659H376.68z"/>
	<path fill="#F6F9FB" d="M411.1,61.598c0,8.05-2.986,12.493-8.23,12.493c-4.627,0-7.76-4.334-7.832-12.165
		c0-7.94,3.424-12.311,8.232-12.311C408.258,49.615,411.1,54.059,411.1,61.598z M398.242,61.962c0,6.156,1.895,9.652,4.809,9.652
		c3.277,0,4.844-3.824,4.844-9.87c0-5.828-1.494-9.652-4.809-9.652C400.281,52.092,398.242,55.516,398.242,61.962z"/>
	<path fill="#F6F9FB" d="M421.006,53.002h-0.072l-4.115,2.222l-0.619-2.439l5.172-2.769h2.73V73.69h-3.096V53.002z"/>
	<path fill="#F6F9FB" d="M448.105,50.016v2.112L437.797,73.69h-3.314l10.271-20.943v-0.072h-11.582v-2.659H448.105z"/>
</g>
</svg>
