<?xml version="1.0" encoding="utf-8"?>
<!-- Generator: Adobe Illustrator 16.0.0, SVG Export Plug-In . SVG Version: 6.00 Build 0)  -->
<!DOCTYPE svg PUBLIC "-//W3C//DTD SVG 1.1//EN" "http://www.w3.org/Graphics/SVG/1.1/DTD/svg11.dtd">
<svg version="1.1" id="Layer_1" xmlns="http://www.w3.org/2000/svg" xmlns:xlink="http://www.w3.org/1999/xlink" x="0px" y="0px"
	 width="532.5px" height="78.5px" viewBox="0 0 532.5 78.5" enable-background="new 0 0 532.5 78.5" xml:space="preserve">
<g>
	<path fill="#047CB7" d="M572,731.208c0,2.762-2.238,5-5,5H44.5c-2.761,0-5-2.238-5-5v-68.5c0-2.762,2.239-5,5-5H567
		c2.762,0,5,2.238,5,5V731.208z"/>
	<text transform="matrix(1 0 0 1 164.6685 707.0127)" fill="#FFFFFF" font-family="'MyriadPro-Regular'" font-size="34.256">Login with Linked in</text>
	<g>
		<path id="LinkedIn" fill="#FFFFFF" d="M120,700.742v12.941h-7.503v-12.074c0-3.034-1.085-5.104-3.801-5.104
			c-2.074,0-3.307,1.396-3.85,2.745c-0.198,0.482-0.249,1.153-0.249,1.829v12.604h-7.505c0,0,0.101-20.453,0-22.57h7.504v3.198
			c-0.015,0.024-0.035,0.051-0.049,0.072h0.049v-0.072c0.997-1.535,2.778-3.729,6.764-3.729
			C116.298,690.583,120,693.809,120,700.742z M89.239,680.232c-2.567,0-4.247,1.684-4.247,3.897c0,2.167,1.63,3.902,4.147,3.902
			h0.05c2.618,0,4.246-1.735,4.246-3.902C93.386,681.916,91.807,680.232,89.239,680.232z M85.438,713.685h7.503v-22.57h-7.503
			V713.685z"/>
	</g>
</g>
<g>
	<path fill="#3C5A99" d="M532.5,73.5c0,2.762-2.238,5-5,5H5c-2.761,0-5-2.238-5-5V5c0-2.762,2.239-5,5-5h522.5c2.762,0,5,2.238,5,5
		V73.5z"/>
	<g enable-background="new    ">
		<path fill="#FFFFFF" d="M127.772,26.215h2.98v20.588h9.866v2.501h-12.846V26.215z"/>
		<path fill="#FFFFFF" d="M158.362,40.877c0,6.132-4.248,8.804-8.256,8.804c-4.487,0-7.947-3.289-7.947-8.53
			c0-5.549,3.631-8.804,8.221-8.804C155.142,32.347,158.362,35.807,158.362,40.877z M145.208,41.048
			c0,3.631,2.089,6.372,5.036,6.372c2.877,0,5.036-2.706,5.036-6.44c0-2.809-1.405-6.372-4.967-6.372S145.208,37.896,145.208,41.048
			z"/>
		<path fill="#FFFFFF" d="M176.45,32.724c-0.069,1.199-0.137,2.535-0.137,4.557v9.626c0,3.802-0.753,6.132-2.364,7.57
			c-1.61,1.507-3.939,1.986-6.029,1.986c-1.987,0-4.179-0.479-5.515-1.37l0.753-2.295c1.096,0.686,2.809,1.302,4.864,1.302
			c3.083,0,5.344-1.61,5.344-5.789v-1.85h-0.069c-0.925,1.541-2.706,2.774-5.275,2.774c-4.111,0-7.057-3.494-7.057-8.085
			c0-5.617,3.666-8.804,7.468-8.804c2.877,0,4.453,1.508,5.173,2.878h0.068l0.137-2.501H176.45z M173.332,39.267
			c0-0.514-0.034-0.959-0.171-1.37c-0.548-1.747-2.021-3.186-4.214-3.186c-2.877,0-4.933,2.432-4.933,6.269
			c0,3.254,1.644,5.961,4.898,5.961c1.85,0,3.528-1.165,4.179-3.083c0.171-0.515,0.24-1.097,0.24-1.61V39.267z"/>
		<path fill="#FFFFFF" d="M184.465,28.065c0.034,1.027-0.72,1.85-1.918,1.85c-1.062,0-1.815-0.822-1.815-1.85
			c0-1.063,0.788-1.885,1.884-1.885C183.745,26.181,184.465,27.003,184.465,28.065z M181.107,49.304v-16.58h3.015v16.58H181.107z"/>
		<path fill="#FFFFFF" d="M189.124,37.211c0-1.712-0.034-3.117-0.137-4.487h2.672l0.171,2.74h0.068
			c0.822-1.575,2.741-3.117,5.481-3.117c2.295,0,5.858,1.37,5.858,7.057v9.9h-3.015v-9.558c0-2.672-0.994-4.898-3.836-4.898
			c-1.987,0-3.529,1.404-4.042,3.083c-0.137,0.377-0.206,0.891-0.206,1.404v9.969h-3.015V37.211z"/>
		<path fill="#FFFFFF" d="M216.596,32.724l2.192,8.427c0.479,1.851,0.925,3.563,1.233,5.275h0.103
			c0.377-1.678,0.925-3.459,1.473-5.241l2.706-8.461h2.535l2.569,8.29c0.617,1.987,1.096,3.734,1.473,5.412h0.103
			c0.274-1.678,0.719-3.425,1.267-5.378l2.364-8.324h2.98l-5.344,16.58h-2.74l-2.535-7.913c-0.582-1.85-1.062-3.494-1.473-5.446
			h-0.068c-0.411,1.986-0.925,3.699-1.507,5.48l-2.672,7.879h-2.74l-5.001-16.58H216.596z"/>
		<path fill="#FFFFFF" d="M243.967,28.065c0.034,1.027-0.72,1.85-1.918,1.85c-1.062,0-1.815-0.822-1.815-1.85
			c0-1.063,0.788-1.885,1.884-1.885C243.247,26.181,243.967,27.003,243.967,28.065z M240.609,49.304v-16.58h3.015v16.58H240.609z"/>
		<path fill="#FFFFFF" d="M252.256,27.962v4.762h4.316v2.295h-4.316v8.941c0,2.055,0.583,3.22,2.261,3.22
			c0.788,0,1.371-0.103,1.747-0.205l0.137,2.261c-0.583,0.239-1.507,0.411-2.672,0.411c-1.405,0-2.535-0.445-3.254-1.268
			c-0.856-0.891-1.165-2.364-1.165-4.316v-9.044h-2.569v-2.295h2.569V28.75L252.256,27.962z"/>
		<path fill="#FFFFFF" d="M259.963,24.982h3.015v10.345h0.068c0.48-0.856,1.233-1.61,2.158-2.124
			c0.891-0.514,1.953-0.856,3.083-0.856c2.228,0,5.79,1.37,5.79,7.092v9.865h-3.015V39.78c0-2.672-0.994-4.933-3.836-4.933
			c-1.953,0-3.495,1.37-4.043,3.015c-0.171,0.411-0.206,0.856-0.206,1.438v10.003h-3.015V24.982z"/>
		<path fill="#FFFFFF" d="M286.34,26.215h12.436v2.501h-9.455v7.674h8.735v2.466h-8.735v10.448h-2.98V26.215z"/>
		<path fill="#FFFFFF" d="M310.559,49.304l-0.239-2.09h-0.103c-0.926,1.302-2.707,2.467-5.07,2.467c-3.357,0-5.07-2.364-5.07-4.762
			c0-4.008,3.563-6.2,9.969-6.166V38.41c0-1.37-0.377-3.837-3.768-3.837c-1.541,0-3.152,0.48-4.316,1.233l-0.686-1.986
			c1.371-0.891,3.357-1.474,5.447-1.474c5.07,0,6.303,3.46,6.303,6.783v6.2c0,1.438,0.068,2.843,0.274,3.974H310.559z
			 M310.113,40.843c-3.288-0.068-7.021,0.514-7.021,3.733c0,1.953,1.301,2.878,2.843,2.878c2.158,0,3.528-1.37,4.008-2.775
			c0.103-0.308,0.171-0.65,0.171-0.959V40.843z"/>
		<path fill="#FFFFFF" d="M329.708,48.688c-0.788,0.411-2.534,0.959-4.761,0.959c-5.002,0-8.256-3.392-8.256-8.462
			c0-5.104,3.494-8.804,8.906-8.804c1.781,0,3.357,0.445,4.18,0.856l-0.686,2.33c-0.72-0.411-1.85-0.788-3.494-0.788
			c-3.803,0-5.857,2.809-5.857,6.269c0,3.837,2.466,6.2,5.754,6.2c1.713,0,2.844-0.445,3.7-0.822L329.708,48.688z"/>
		<path fill="#FFFFFF" d="M334.709,41.562c0.068,4.077,2.672,5.755,5.688,5.755c2.158,0,3.459-0.376,4.59-0.855l0.514,2.157
			c-1.063,0.48-2.877,1.028-5.516,1.028c-5.104,0-8.152-3.357-8.152-8.358c0-5.002,2.945-8.941,7.775-8.941
			c5.413,0,6.852,4.762,6.852,7.811c0,0.617-0.068,1.097-0.103,1.404H334.709z M343.547,39.403c0.035-1.918-0.787-4.898-4.179-4.898
			c-3.049,0-4.385,2.81-4.624,4.898H343.547z"/>
		<path fill="#FFFFFF" d="M350.057,49.304c0.068-1.131,0.137-2.809,0.137-4.282V24.982h2.98v10.413h0.068
			c1.062-1.85,2.98-3.049,5.652-3.049c4.11,0,7.021,3.426,6.988,8.462c0,5.926-3.734,8.872-7.434,8.872
			c-2.398,0-4.316-0.925-5.55-3.117h-0.103l-0.137,2.74H350.057z M353.174,42.658c0,0.377,0.068,0.754,0.137,1.096
			c0.582,2.09,2.329,3.528,4.521,3.528c3.152,0,5.035-2.568,5.035-6.371c0-3.323-1.713-6.166-4.932-6.166
			c-2.057,0-3.975,1.404-4.591,3.699c-0.069,0.343-0.171,0.754-0.171,1.233V42.658z"/>
		<path fill="#FFFFFF" d="M384.688,40.877c0,6.132-4.248,8.804-8.256,8.804c-4.487,0-7.947-3.289-7.947-8.53
			c0-5.549,3.632-8.804,8.222-8.804C381.469,32.347,384.688,35.807,384.688,40.877z M371.534,41.048
			c0,3.631,2.089,6.372,5.036,6.372c2.877,0,5.035-2.706,5.035-6.44c0-2.809-1.404-6.372-4.967-6.372S371.534,37.896,371.534,41.048
			z"/>
		<path fill="#FFFFFF" d="M403.494,40.877c0,6.132-4.248,8.804-8.256,8.804c-4.486,0-7.947-3.289-7.947-8.53
			c0-5.549,3.631-8.804,8.222-8.804C400.274,32.347,403.494,35.807,403.494,40.877z M390.34,41.048c0,3.631,2.09,6.372,5.036,6.372
			c2.878,0,5.036-2.706,5.036-6.44c0-2.809-1.405-6.372-4.968-6.372S390.34,37.896,390.34,41.048z"/>
		<path fill="#FFFFFF" d="M410.277,40.329h0.068c0.411-0.583,0.994-1.302,1.473-1.885l4.865-5.721h3.631l-6.406,6.817l7.297,9.763
			h-3.666l-5.721-7.947l-1.541,1.713v6.234h-2.98V24.982h2.98V40.329z"/>
	</g>
	<g>
		<g>
			<path fill="#FFFFFF" d="M72.096,18.606l-5.356-0.009c-6.018,0-9.907,3.99-9.907,10.165v4.687h-5.386
				c-0.464,0-0.842,0.378-0.842,0.843v6.791c0,0.465,0.377,0.842,0.842,0.842h5.386v17.136c0,0.465,0.377,0.842,0.842,0.842h7.027
				c0.465,0,0.842-0.377,0.842-0.842V41.925h6.297c0.466,0,0.843-0.377,0.843-0.842l0.002-6.791c0-0.224-0.089-0.438-0.247-0.596
				c-0.158-0.158-0.373-0.247-0.596-0.247h-6.3v-3.973c0-1.91,0.455-2.88,2.943-2.88l3.608-0.001c0.465,0,0.842-0.377,0.842-0.842
				v-6.306C72.937,18.984,72.56,18.607,72.096,18.606z"/>
		</g>
	</g>
</g>
</svg>
