<?xml version="1.0" encoding="utf-8"?>
<!-- Generator: Adobe Illustrator 16.0.0, SVG Export Plug-In . SVG Version: 6.00 Build 0)  -->
<!DOCTYPE svg PUBLIC "-//W3C//DTD SVG 1.1//EN" "http://www.w3.org/Graphics/SVG/1.1/DTD/svg11.dtd">
<svg version="1.1" id="Layer_1" xmlns="http://www.w3.org/2000/svg" xmlns:xlink="http://www.w3.org/1999/xlink" x="0px" y="0px"
	 width="160px" height="118px" viewBox="0 0 160 118" enable-background="new 0 0 160 118" xml:space="preserve">
<g>
	<g>
		<rect fill="#2C2B5C" width="160.001" height="118"/>
		<rect x="158.96" fill="#5B5A81" width="1.041" height="118"/>
	</g>
	<g enable-background="new    ">
		<path fill="#FFFFFF" d="M56.177,98.046c-1.059,0.38-3.15,1.005-5.622,1.005c-2.771,0-5.052-0.706-6.845-2.418
			c-1.575-1.521-2.553-3.965-2.553-6.817c0.027-5.459,3.775-9.451,9.914-9.451c2.118,0,3.775,0.461,4.563,0.842l-0.571,1.929
			c-0.978-0.435-2.2-0.788-4.047-0.788c-4.454,0-7.36,2.771-7.36,7.36c0,4.645,2.797,7.388,7.062,7.388
			c1.548,0,2.607-0.217,3.151-0.488v-5.46h-3.721v-1.901h6.03V98.046z"/>
		<path fill="#FFFFFF" d="M67.206,98.86l-0.19-1.657h-0.082c-0.733,1.032-2.146,1.956-4.02,1.956c-2.662,0-4.02-1.874-4.02-3.775
			c0-3.178,2.825-4.916,7.904-4.889v-0.271c0-1.087-0.299-3.042-2.988-3.042c-1.222,0-2.499,0.38-3.422,0.978l-0.543-1.575
			c1.086-0.706,2.662-1.168,4.318-1.168c4.02,0,4.998,2.743,4.998,5.378v4.916c0,1.141,0.054,2.254,0.217,3.15H67.206z
			 M66.853,92.151c-2.607-0.054-5.568,0.408-5.568,2.961c0,1.548,1.032,2.281,2.254,2.281c1.711,0,2.797-1.086,3.178-2.2
			c0.082-0.244,0.136-0.516,0.136-0.76V92.151z"/>
		<path fill="#FFFFFF" d="M73.019,79.576h2.39V98.86h-2.39V79.576z"/>
		<path fill="#FFFFFF" d="M79.429,79.576h2.39V98.86h-2.39V79.576z"/>
		<path fill="#FFFFFF" d="M87.17,92.722c0.055,3.232,2.119,4.563,4.51,4.563c1.711,0,2.742-0.299,3.639-0.679l0.408,1.711
			c-0.842,0.38-2.281,0.814-4.373,0.814c-4.047,0-6.465-2.662-6.465-6.627c0-3.966,2.336-7.089,6.166-7.089
			c4.291,0,5.432,3.775,5.432,6.192c0,0.489-0.055,0.869-0.081,1.113H87.17z M94.178,91.011c0.027-1.521-0.625-3.884-3.313-3.884
			c-2.417,0-3.477,2.228-3.667,3.884H94.178z"/>
		<path fill="#FFFFFF" d="M99.448,89.815c0-1.548-0.027-2.879-0.108-4.101h2.091l0.081,2.58h0.109
			c0.598-1.766,2.037-2.879,3.639-2.879c0.272,0,0.463,0.027,0.68,0.081v2.255c-0.244-0.055-0.488-0.082-0.814-0.082
			c-1.684,0-2.879,1.276-3.205,3.069c-0.055,0.326-0.109,0.706-0.109,1.113v7.008h-2.362V89.815z"/>
		<path fill="#FFFFFF" d="M109.879,85.715l2.879,7.768c0.299,0.869,0.624,1.901,0.842,2.689h0.055
			c0.244-0.788,0.516-1.793,0.842-2.743l2.607-7.714h2.525l-3.586,9.37c-1.711,4.509-2.879,6.817-4.508,8.229
			c-1.168,1.032-2.336,1.439-2.934,1.549l-0.598-2.011c0.598-0.189,1.385-0.57,2.092-1.168c0.652-0.516,1.467-1.439,2.01-2.661
			c0.108-0.244,0.189-0.435,0.189-0.57s-0.054-0.326-0.162-0.625l-4.861-12.113H109.879z"/>
	</g>
	<g>
		<path fill="#FFFFFF" d="M104.583,32.037L76.302,18.528c-0.328-0.161-0.726-0.022-0.881,0.305l-6.155,12.881h3.354l4.517-9.463
			l24.521,11.71l-7.67,16.048l-4.315-2.061v8.483l2.654,1.268c0.332,0.16,0.724,0.017,0.881-0.313l11.688-24.474
			C105.055,32.587,104.914,32.193,104.583,32.037z"/>
		<path fill="#FFFFFF" d="M87.046,33.271H55.702c-0.361,0-0.663,0.296-0.663,0.657v27.124c0,0.363,0.301,0.66,0.663,0.66h31.342
			c0.364,0,0.663-0.297,0.663-0.66V33.928C87.708,33.566,87.411,33.271,87.046,33.271z M85.234,54.057H83.25
			c-1.158-2.966-2.583-7.12-4.743-6.565c-2.533,0.647-3.798,6.565-3.798,6.565s-1.297-6.679-4.872-10.254
			c-3.576-3.577-7.04,10.254-7.04,10.254h-4.732V36.27h27.169V54.057z"/>
		<circle fill="#FFFFFF" cx="62.45" cy="40.087" r="2.217"/>
		<path fill="#FFFFFF" d="M77.322,41.651c0.498,0,0.962-0.052,1.378-0.134c0.482,0.205,1.073,0.33,1.708,0.33
			c1.637,0,2.959-0.8,2.959-1.785c0-0.982-1.322-1.783-2.959-1.783c-0.612,0-1.18,0.113-1.652,0.308
			c-0.195-0.189-0.455-0.308-0.745-0.308h-0.428c-0.55,0-0.982,0.419-1.043,0.947c-1.324,0.139-2.308,0.618-2.308,1.189
			C74.231,41.099,75.615,41.651,77.322,41.651z"/>
	</g>
</g>
</svg>
