<?xml version="1.0" encoding="utf-8"?>
<!-- Generator: Adobe Illustrator 16.0.0, SVG Export Plug-In . SVG Version: 6.00 Build 0)  -->
<!DOCTYPE svg PUBLIC "-//W3C//DTD SVG 1.1//EN" "http://www.w3.org/Graphics/SVG/1.1/DTD/svg11.dtd">
<svg version="1.1" id="Layer_1" xmlns="http://www.w3.org/2000/svg" xmlns:xlink="http://www.w3.org/1999/xlink" x="0px" y="0px"
	 width="532.5px" height="78.5px" viewBox="0 0 532.5 78.5" enable-background="new 0 0 532.5 78.5" xml:space="preserve">
<g>
	<path fill="#E2402C" d="M532.5,73.5c0,2.762-2.238,5-5,5H5c-2.761,0-5-2.238-5-5V5c0-2.762,2.239-5,5-5h522.5c2.762,0,5,2.238,5,5
		V73.5z"/>
	<g enable-background="new    ">
		<path fill="#FFFFFF" d="M127.772,26.216h2.98v20.588h9.866v2.501h-12.846V26.216z"/>
		<path fill="#FFFFFF" d="M158.362,40.878c0,6.132-4.248,8.804-8.256,8.804c-4.487,0-7.947-3.289-7.947-8.53
			c0-5.549,3.631-8.804,8.221-8.804C155.142,32.348,158.362,35.808,158.362,40.878z M145.208,41.049
			c0,3.631,2.089,6.372,5.036,6.372c2.877,0,5.036-2.706,5.036-6.44c0-2.809-1.405-6.372-4.967-6.372S145.208,37.897,145.208,41.049
			z"/>
		<path fill="#FFFFFF" d="M176.45,32.725c-0.069,1.199-0.137,2.535-0.137,4.557v9.626c0,3.802-0.753,6.132-2.364,7.57
			c-1.61,1.507-3.939,1.986-6.029,1.986c-1.987,0-4.179-0.479-5.515-1.37l0.753-2.295c1.096,0.686,2.809,1.302,4.864,1.302
			c3.083,0,5.344-1.61,5.344-5.789v-1.85h-0.069c-0.925,1.541-2.706,2.774-5.275,2.774c-4.111,0-7.057-3.494-7.057-8.085
			c0-5.617,3.666-8.804,7.468-8.804c2.877,0,4.453,1.508,5.173,2.878h0.068l0.137-2.501H176.45z M173.332,39.268
			c0-0.514-0.034-0.959-0.171-1.37c-0.548-1.747-2.021-3.186-4.214-3.186c-2.877,0-4.933,2.432-4.933,6.269
			c0,3.254,1.644,5.961,4.898,5.961c1.85,0,3.528-1.165,4.179-3.083c0.171-0.515,0.24-1.097,0.24-1.61V39.268z"/>
		<path fill="#FFFFFF" d="M184.465,28.066c0.034,1.027-0.72,1.85-1.918,1.85c-1.062,0-1.815-0.822-1.815-1.85
			c0-1.063,0.788-1.885,1.884-1.885C183.745,26.182,184.465,27.004,184.465,28.066z M181.107,49.305v-16.58h3.015v16.58H181.107z"/>
		<path fill="#FFFFFF" d="M189.124,37.212c0-1.712-0.034-3.117-0.137-4.487h2.672l0.171,2.74h0.068
			c0.822-1.575,2.741-3.117,5.481-3.117c2.295,0,5.858,1.37,5.858,7.057v9.9h-3.015v-9.558c0-2.672-0.994-4.898-3.836-4.898
			c-1.987,0-3.529,1.404-4.042,3.083c-0.137,0.377-0.206,0.891-0.206,1.404v9.969h-3.015V37.212z"/>
		<path fill="#FFFFFF" d="M216.596,32.725l2.192,8.427c0.479,1.851,0.925,3.563,1.233,5.275h0.103
			c0.377-1.678,0.925-3.459,1.473-5.241l2.706-8.461h2.535l2.569,8.29c0.617,1.987,1.096,3.734,1.473,5.412h0.103
			c0.274-1.678,0.719-3.425,1.267-5.378l2.364-8.324h2.98l-5.344,16.58h-2.74l-2.535-7.913c-0.582-1.85-1.062-3.494-1.473-5.446
			h-0.068c-0.411,1.986-0.925,3.699-1.507,5.48l-2.672,7.879h-2.74l-5.001-16.58H216.596z"/>
		<path fill="#FFFFFF" d="M243.967,28.066c0.034,1.027-0.72,1.85-1.918,1.85c-1.062,0-1.815-0.822-1.815-1.85
			c0-1.063,0.788-1.885,1.884-1.885C243.247,26.182,243.967,27.004,243.967,28.066z M240.609,49.305v-16.58h3.015v16.58H240.609z"/>
		<path fill="#FFFFFF" d="M252.256,27.963v4.762h4.316v2.295h-4.316v8.941c0,2.055,0.583,3.22,2.261,3.22
			c0.788,0,1.371-0.103,1.747-0.205l0.137,2.261c-0.583,0.239-1.507,0.411-2.672,0.411c-1.405,0-2.535-0.445-3.254-1.268
			c-0.856-0.891-1.165-2.364-1.165-4.316V35.02h-2.569v-2.295h2.569v-3.974L252.256,27.963z"/>
		<path fill="#FFFFFF" d="M259.963,24.983h3.015v10.345h0.068c0.48-0.856,1.233-1.61,2.158-2.124
			c0.891-0.514,1.953-0.856,3.083-0.856c2.228,0,5.79,1.37,5.79,7.092v9.865h-3.015v-9.523c0-2.672-0.994-4.933-3.836-4.933
			c-1.953,0-3.495,1.37-4.043,3.015c-0.171,0.411-0.206,0.856-0.206,1.438v10.003h-3.015V24.983z"/>
		<path fill="#FFFFFF" d="M303.914,48.277c-1.336,0.479-3.975,1.268-7.092,1.268c-3.494,0-6.371-0.891-8.633-3.049
			c-1.986-1.919-3.219-5.002-3.219-8.599c0.033-6.886,4.761-11.921,12.503-11.921c2.672,0,4.761,0.582,5.755,1.062l-0.719,2.433
			c-1.234-0.548-2.775-0.994-5.105-0.994c-5.617,0-9.283,3.494-9.283,9.284c0,5.857,3.529,9.317,8.907,9.317
			c1.952,0,3.288-0.274,3.974-0.616v-6.886h-4.693v-2.398h7.605V48.277z"/>
		<path fill="#FFFFFF" d="M323.541,40.878c0,6.132-4.248,8.804-8.256,8.804c-4.486,0-7.947-3.289-7.947-8.53
			c0-5.549,3.631-8.804,8.222-8.804C320.321,32.348,323.541,35.808,323.541,40.878z M310.387,41.049c0,3.631,2.09,6.372,5.036,6.372
			c2.878,0,5.036-2.706,5.036-6.44c0-2.809-1.405-6.372-4.968-6.372S310.387,37.897,310.387,41.049z"/>
		<path fill="#FFFFFF" d="M342.348,40.878c0,6.132-4.248,8.804-8.256,8.804c-4.486,0-7.947-3.289-7.947-8.53
			c0-5.549,3.631-8.804,8.222-8.804C339.128,32.348,342.348,35.808,342.348,40.878z M329.193,41.049c0,3.631,2.09,6.372,5.036,6.372
			c2.878,0,5.036-2.706,5.036-6.44c0-2.809-1.405-6.372-4.968-6.372S329.193,37.897,329.193,41.049z"/>
		<path fill="#FFFFFF" d="M360.436,32.725c-0.069,1.199-0.138,2.535-0.138,4.557v9.626c0,3.802-0.753,6.132-2.364,7.57
			c-1.609,1.507-3.939,1.986-6.028,1.986c-1.987,0-4.179-0.479-5.515-1.37l0.753-2.295c1.097,0.686,2.81,1.302,4.864,1.302
			c3.083,0,5.344-1.61,5.344-5.789v-1.85h-0.068c-0.925,1.541-2.706,2.774-5.275,2.774c-4.111,0-7.057-3.494-7.057-8.085
			c0-5.617,3.666-8.804,7.468-8.804c2.878,0,4.453,1.508,5.173,2.878h0.068l0.137-2.501H360.436z M357.317,39.268
			c0-0.514-0.034-0.959-0.171-1.37c-0.549-1.747-2.021-3.186-4.214-3.186c-2.878,0-4.933,2.432-4.933,6.269
			c0,3.254,1.645,5.961,4.898,5.961c1.85,0,3.528-1.165,4.18-3.083c0.171-0.515,0.239-1.097,0.239-1.61V39.268z"/>
		<path fill="#FFFFFF" d="M365.299,24.983h3.015v24.321h-3.015V24.983z"/>
		<path fill="#FFFFFF" d="M375.062,41.563c0.068,4.077,2.672,5.755,5.687,5.755c2.158,0,3.46-0.376,4.59-0.855l0.514,2.157
			c-1.062,0.48-2.877,1.028-5.515,1.028c-5.104,0-8.153-3.357-8.153-8.358c0-5.002,2.946-8.941,7.776-8.941
			c5.413,0,6.852,4.762,6.852,7.811c0,0.617-0.069,1.097-0.103,1.404H375.062z M383.899,39.404c0.034-1.918-0.788-4.898-4.179-4.898
			c-3.049,0-4.385,2.81-4.625,4.898H383.899z"/>
		<path fill="#FFFFFF" d="M399.35,31.08v8.051h7.741v2.055h-7.741v8.119h-2.193v-8.119h-7.742v-2.055h7.742V31.08H399.35z"/>
	</g>
	<g>
		<path fill="#FFFFFF" d="M47.921,30.067c0,3.109,1.037,5.354,3.086,6.672c1.675,1.08,3.622,1.242,4.631,1.242
			c0.246,0,0.443-0.01,0.58-0.02c0,0-0.32,2.09,1.228,4.154h-0.07c-2.683,0-11.435,0.563-11.435,7.756
			c0,7.32,8.038,7.693,9.65,7.693c0.125,0,0.199-0.004,0.199-0.004c0.019,0,0.134,0.006,0.33,0.006c1.035,0,3.711-0.133,6.193-1.34
			c3.223-1.564,4.858-4.281,4.858-8.084c0-3.675-2.491-5.861-4.31-7.459c-1.109-0.974-2.068-1.814-2.068-2.634
			c0-0.83,0.7-1.459,1.585-2.25c1.434-1.283,2.785-3.109,2.785-6.561c0-3.031-0.393-5.068-2.816-6.359
			c0.252-0.131,1.146-0.225,1.588-0.285c1.313-0.18,3.235-0.383,3.235-1.457v-0.207H57.6C57.503,20.937,47.921,21.292,47.921,30.067
			z M63.372,48.827c0.183,2.93-2.321,5.088-6.081,5.362c-3.819,0.277-6.963-1.442-7.146-4.364c-0.088-1.406,0.529-2.781,1.738-3.88
			c1.228-1.11,2.911-1.795,4.743-1.932c0.216-0.012,0.431-0.021,0.645-0.021C60.805,43.993,63.198,46.068,63.372,48.827z
			 M60.872,28.065c0.939,3.303-0.478,6.756-2.738,7.391c-0.259,0.074-0.528,0.113-0.8,0.113c-2.07,0-4.121-2.098-4.881-4.979
			c-0.424-1.623-0.39-3.039,0.097-4.402c0.479-1.338,1.338-2.244,2.42-2.547c0.261-0.076,0.529-0.111,0.801-0.111
			C58.27,23.528,59.877,24.565,60.872,28.065z M77,35.257v-6.244h-3.955v6.244H66.8v3.957h6.245v6.242H77v-6.242h6.245v-3.957H77z"
			/>
	</g>
</g>
</svg>
