<?xml version="1.0" encoding="utf-8"?>
<!-- Generator: Adobe Illustrator 16.0.0, SVG Export Plug-In . SVG Version: 6.00 Build 0)  -->
<!DOCTYPE svg PUBLIC "-//W3C//DTD SVG 1.1//EN" "http://www.w3.org/Graphics/SVG/1.1/DTD/svg11.dtd">
<svg version="1.1" id="Layer_1" xmlns="http://www.w3.org/2000/svg" xmlns:xlink="http://www.w3.org/1999/xlink" x="0px" y="0px"
	 width="160px" height="118px" viewBox="0 0 160 118" enable-background="new 0 0 160 118" xml:space="preserve">
<g>
	<g>
		<rect fill="#2C2B5C" width="160" height="118"/>
		<rect x="158.958" fill="#5B5A81" width="1.042" height="118"/>
	</g>
	<g>
		<path fill="#FFFFFF" d="M102.665,38.473L81.759,20.086c-0.975-0.858-2.553-0.858-3.514,0L57.344,38.473
			c-0.974,0.856-0.714,1.553,0.584,1.553h6.45v18.828c0,1.026,0.844,1.876,1.877,1.876h7.891V48.346
			c0-1.026,0.844-1.878,1.877-1.878h7.969c1.037,0,1.877,0.831,1.877,1.878V60.73h7.893c1.038,0,1.877-0.845,1.877-1.877V40.019
			h6.448C103.366,40.019,103.626,39.329,102.665,38.473z"/>
	</g>
	<g enable-background="new    ">
		<path fill="#FFFFFF" d="M49.985,80.554v7.66h8.854v-7.66h2.39V98.86h-2.39v-8.583h-8.854v8.583h-2.363V80.554H49.985z"/>
		<path fill="#FFFFFF" d="M77.146,92.179c0,4.862-3.368,6.98-6.545,6.98c-3.558,0-6.301-2.607-6.301-6.763
			c0-4.4,2.879-6.98,6.519-6.98C74.594,85.416,77.146,88.159,77.146,92.179z M66.717,92.314c0,2.879,1.657,5.052,3.993,5.052
			c2.282,0,3.993-2.146,3.993-5.105c0-2.228-1.113-5.053-3.938-5.053C67.939,87.208,66.717,89.815,66.717,92.314z"/>
		<path fill="#FFFFFF" d="M80.163,89.272c0-1.357-0.027-2.472-0.109-3.558h2.091l0.108,2.118h0.082
			c0.733-1.249,1.955-2.417,4.129-2.417c1.792,0,3.15,1.086,3.721,2.635h0.054c0.407-0.733,0.924-1.304,1.467-1.712
			c0.788-0.597,1.657-0.923,2.906-0.923c1.738,0,4.318,1.141,4.318,5.703v7.741h-2.335v-7.442c0-2.525-0.924-4.047-2.853-4.047
			c-1.358,0-2.417,1.005-2.825,2.173c-0.107,0.326-0.189,0.761-0.189,1.195v8.121h-2.336v-7.877c0-2.091-0.924-3.612-2.743-3.612
			c-1.494,0-2.58,1.195-2.96,2.391c-0.137,0.353-0.191,0.761-0.191,1.168v7.931h-2.335V89.272z"/>
		<path fill="#FFFFFF" d="M104.148,92.722c0.054,3.232,2.118,4.563,4.508,4.563c1.711,0,2.744-0.299,3.641-0.679l0.406,1.711
			c-0.842,0.38-2.281,0.814-4.372,0.814c-4.048,0-6.464-2.662-6.464-6.627c0-3.966,2.335-7.089,6.165-7.089
			c4.291,0,5.433,3.775,5.433,6.192c0,0.489-0.055,0.869-0.082,1.113H104.148z M111.155,91.011c0.027-1.521-0.624-3.884-3.313-3.884
			c-2.417,0-3.477,2.228-3.666,3.884H111.155z"/>
	</g>
</g>
</svg>
