<?xml version="1.0" encoding="utf-8"?>
<!-- Generator: Adobe Illustrator 16.0.0, SVG Export Plug-In . SVG Version: 6.00 Build 0)  -->
<!DOCTYPE svg PUBLIC "-//W3C//DTD SVG 1.1//EN" "http://www.w3.org/Graphics/SVG/1.1/DTD/svg11.dtd">
<svg version="1.1" id="Layer_1" xmlns="http://www.w3.org/2000/svg" xmlns:xlink="http://www.w3.org/1999/xlink" x="0px" y="0px"
	 width="532.5px" height="78.5px" viewBox="0 0 532.5 78.5" enable-background="new 0 0 532.5 78.5" xml:space="preserve">
<g>
	<path fill="#047CB7" d="M532.5,73.5c0,2.762-2.238,5-5,5H5c-2.761,0-5-2.238-5-5V5c0-2.762,2.239-5,5-5h522.5c2.762,0,5,2.238,5,5
		V73.5z"/>
	<g enable-background="new    ">
		<path fill="#FFFFFF" d="M127.772,26.216h2.98v20.588h9.866v2.501h-12.846V26.216z"/>
		<path fill="#FFFFFF" d="M158.362,40.878c0,6.132-4.248,8.804-8.256,8.804c-4.487,0-7.947-3.289-7.947-8.53
			c0-5.549,3.631-8.804,8.221-8.804C155.142,32.348,158.362,35.808,158.362,40.878z M145.208,41.049
			c0,3.631,2.089,6.372,5.036,6.372c2.877,0,5.036-2.706,5.036-6.44c0-2.809-1.405-6.372-4.967-6.372S145.208,37.897,145.208,41.049
			z"/>
		<path fill="#FFFFFF" d="M176.45,32.725c-0.069,1.199-0.137,2.535-0.137,4.557v9.626c0,3.802-0.753,6.132-2.364,7.57
			c-1.61,1.507-3.939,1.986-6.029,1.986c-1.987,0-4.179-0.479-5.515-1.37l0.753-2.295c1.096,0.686,2.809,1.302,4.864,1.302
			c3.083,0,5.344-1.61,5.344-5.789v-1.85h-0.069c-0.925,1.541-2.706,2.774-5.275,2.774c-4.111,0-7.057-3.494-7.057-8.085
			c0-5.617,3.666-8.804,7.468-8.804c2.877,0,4.453,1.508,5.173,2.878h0.068l0.137-2.501H176.45z M173.332,39.268
			c0-0.514-0.034-0.959-0.171-1.37c-0.548-1.747-2.021-3.186-4.214-3.186c-2.877,0-4.933,2.432-4.933,6.269
			c0,3.254,1.644,5.961,4.898,5.961c1.85,0,3.528-1.165,4.179-3.083c0.171-0.515,0.24-1.097,0.24-1.61V39.268z"/>
		<path fill="#FFFFFF" d="M184.465,28.066c0.034,1.027-0.72,1.85-1.918,1.85c-1.062,0-1.815-0.822-1.815-1.85
			c0-1.063,0.788-1.885,1.884-1.885C183.745,26.182,184.465,27.004,184.465,28.066z M181.107,49.305v-16.58h3.015v16.58H181.107z"/>
		<path fill="#FFFFFF" d="M189.124,37.212c0-1.712-0.034-3.117-0.137-4.487h2.672l0.171,2.74h0.068
			c0.822-1.575,2.741-3.117,5.481-3.117c2.295,0,5.858,1.37,5.858,7.057v9.9h-3.015v-9.558c0-2.672-0.994-4.898-3.836-4.898
			c-1.987,0-3.529,1.404-4.042,3.083c-0.137,0.377-0.206,0.891-0.206,1.404v9.969h-3.015V37.212z"/>
		<path fill="#FFFFFF" d="M216.596,32.725l2.192,8.427c0.479,1.851,0.925,3.563,1.233,5.275h0.103
			c0.377-1.678,0.925-3.459,1.473-5.241l2.706-8.461h2.535l2.569,8.29c0.617,1.987,1.096,3.734,1.473,5.412h0.103
			c0.274-1.678,0.719-3.425,1.267-5.378l2.364-8.324h2.98l-5.344,16.58h-2.74l-2.535-7.913c-0.582-1.85-1.062-3.494-1.473-5.446
			h-0.068c-0.411,1.986-0.925,3.699-1.507,5.48l-2.672,7.879h-2.74l-5.001-16.58H216.596z"/>
		<path fill="#FFFFFF" d="M243.967,28.066c0.034,1.027-0.72,1.85-1.918,1.85c-1.062,0-1.815-0.822-1.815-1.85
			c0-1.063,0.788-1.885,1.884-1.885C243.247,26.182,243.967,27.004,243.967,28.066z M240.609,49.305v-16.58h3.015v16.58H240.609z"/>
		<path fill="#FFFFFF" d="M252.256,27.963v4.762h4.316v2.295h-4.316v8.941c0,2.055,0.583,3.22,2.261,3.22
			c0.788,0,1.371-0.103,1.747-0.205l0.137,2.261c-0.583,0.239-1.507,0.411-2.672,0.411c-1.405,0-2.535-0.445-3.254-1.268
			c-0.856-0.891-1.165-2.364-1.165-4.316V35.02h-2.569v-2.295h2.569v-3.974L252.256,27.963z"/>
		<path fill="#FFFFFF" d="M259.963,24.983h3.015v10.345h0.068c0.48-0.856,1.233-1.61,2.158-2.124
			c0.891-0.514,1.953-0.856,3.083-0.856c2.228,0,5.79,1.37,5.79,7.092v9.865h-3.015v-9.523c0-2.672-0.994-4.933-3.836-4.933
			c-1.953,0-3.495,1.37-4.043,3.015c-0.171,0.411-0.206,0.856-0.206,1.438v10.003h-3.015V24.983z"/>
		<path fill="#FFFFFF" d="M286.34,26.216h2.98v20.588h9.865v2.501H286.34V26.216z"/>
		<path fill="#FFFFFF" d="M305.763,28.066c0.034,1.027-0.72,1.85-1.919,1.85c-1.062,0-1.814-0.822-1.814-1.85
			c0-1.063,0.787-1.885,1.883-1.885C305.043,26.182,305.763,27.004,305.763,28.066z M302.405,49.305v-16.58h3.015v16.58H302.405z"/>
		<path fill="#FFFFFF" d="M310.422,37.212c0-1.712-0.035-3.117-0.137-4.487h2.672l0.171,2.74h0.068
			c0.822-1.575,2.741-3.117,5.481-3.117c2.295,0,5.857,1.37,5.857,7.057v9.9h-3.015v-9.558c0-2.672-0.993-4.898-3.837-4.898
			c-1.986,0-3.528,1.404-4.042,3.083c-0.138,0.377-0.206,0.891-0.206,1.404v9.969h-3.014V37.212z"/>
		<path fill="#FFFFFF" d="M332.414,40.33h0.068c0.41-0.583,0.993-1.302,1.473-1.885l4.864-5.721h3.632l-6.406,6.817l7.297,9.763
			h-3.666l-5.721-7.947l-1.541,1.713v6.234h-2.98V24.983h2.98V40.33z"/>
		<path fill="#FFFFFF" d="M347.178,41.563c0.068,4.077,2.672,5.755,5.687,5.755c2.158,0,3.46-0.376,4.591-0.855l0.514,2.157
			c-1.063,0.48-2.878,1.028-5.516,1.028c-5.104,0-8.152-3.357-8.152-8.358c0-5.002,2.945-8.941,7.775-8.941
			c5.412,0,6.852,4.762,6.852,7.811c0,0.617-0.068,1.097-0.104,1.404H347.178z M356.016,39.404c0.035-1.918-0.787-4.898-4.18-4.898
			c-3.049,0-4.385,2.81-4.624,4.898H356.016z"/>
		<path fill="#FFFFFF" d="M376.98,24.983v20.039c0,1.474,0.033,3.151,0.137,4.282h-2.707l-0.137-2.878h-0.068
			c-0.925,1.851-2.945,3.255-5.652,3.255c-4.008,0-7.091-3.392-7.091-8.427c-0.034-5.516,3.392-8.907,7.434-8.907
			c2.534,0,4.247,1.199,5.001,2.535h0.068v-9.899H376.98z M373.965,39.474c0-0.377-0.033-0.891-0.137-1.268
			c-0.445-1.919-2.09-3.494-4.35-3.494c-3.118,0-4.968,2.74-4.968,6.405c0,3.357,1.644,6.132,4.898,6.132
			c2.021,0,3.871-1.336,4.419-3.597c0.104-0.411,0.137-0.822,0.137-1.302V39.474z"/>
		<path fill="#FFFFFF" d="M392.601,28.066c0.034,1.027-0.72,1.85-1.919,1.85c-1.062,0-1.814-0.822-1.814-1.85
			c0-1.063,0.787-1.885,1.883-1.885C391.881,26.182,392.601,27.004,392.601,28.066z M389.243,49.305v-16.58h3.015v16.58H389.243z"/>
		<path fill="#FFFFFF" d="M397.259,37.212c0-1.712-0.034-3.117-0.137-4.487h2.672l0.171,2.74h0.068
			c0.822-1.575,2.741-3.117,5.481-3.117c2.296,0,5.858,1.37,5.858,7.057v9.9h-3.016v-9.558c0-2.672-0.992-4.898-3.836-4.898
			c-1.987,0-3.529,1.404-4.043,3.083c-0.137,0.377-0.205,0.891-0.205,1.404v9.969h-3.015V37.212z"/>
	</g>
	<g>
		<path id="LinkedIn_1_" fill="#FFFFFF" d="M80.5,43.034v12.942h-7.503V43.9c0-3.033-1.085-5.104-3.801-5.104
			c-2.074,0-3.307,1.396-3.85,2.745c-0.198,0.481-0.249,1.153-0.249,1.829v12.605h-7.505c0,0,0.101-20.454,0-22.571h7.504v3.199
			c-0.015,0.024-0.035,0.05-0.049,0.072h0.049v-0.072c0.997-1.536,2.778-3.729,6.764-3.729C76.798,32.875,80.5,36.101,80.5,43.034z
			 M49.739,22.524c-2.567,0-4.247,1.684-4.247,3.898c0,2.167,1.63,3.902,4.147,3.902h0.05c2.618,0,4.246-1.735,4.246-3.902
			C53.886,24.208,52.307,22.524,49.739,22.524z M45.938,55.977h7.503V33.405h-7.503V55.977z"/>
	</g>
</g>
</svg>
