<?xml version="1.0" encoding="utf-8"?>
<!-- Generator: Adobe Illustrator 16.0.0, SVG Export Plug-In . SVG Version: 6.00 Build 0)  -->
<!DOCTYPE svg PUBLIC "-//W3C//DTD SVG 1.1//EN" "http://www.w3.org/Graphics/SVG/1.1/DTD/svg11.dtd">
<svg version="1.1" id="Layer_1" xmlns="http://www.w3.org/2000/svg" xmlns:xlink="http://www.w3.org/1999/xlink" x="0px" y="0px"
	 width="43.451px" height="37.608px" viewBox="0 0 43.451 37.608" enable-background="new 0 0 43.451 37.608" xml:space="preserve">
<g>
	<g>
		<path fill="#FFFFFF" d="M41.083,5.49H13.355c-1.31,0-2.368-1.059-2.368-2.368c0-1.308,1.059-2.367,2.368-2.367h27.728
			c1.309,0,2.368,1.059,2.368,2.367C43.451,4.431,42.392,5.49,41.083,5.49z"/>
		<path fill="#FFFFFF" d="M3.184,0.125c1.756,0,3.18,1.424,3.18,3.179c0,1.756-1.424,3.18-3.18,3.18C1.423,6.483,0,5.06,0,3.304
			C0,1.549,1.423,0.125,3.184,0.125z"/>
	</g>
	<g>
		<path fill="#FFFFFF" d="M41.083,15.865H13.355c-1.31,0-2.368-1.059-2.368-2.368c0-1.308,1.059-2.367,2.368-2.367h27.728
			c1.309,0,2.368,1.059,2.368,2.367C43.451,14.806,42.392,15.865,41.083,15.865z"/>
		<path fill="#FFFFFF" d="M3.184,10.5c1.756,0,3.18,1.424,3.18,3.179c0,1.756-1.424,3.18-3.18,3.18C1.423,16.858,0,15.435,0,13.679
			C0,11.924,1.423,10.5,3.184,10.5z"/>
	</g>
	<g>
		<path fill="#FFFFFF" d="M41.083,26.24H13.355c-1.31,0-2.368-1.059-2.368-2.368c0-1.308,1.059-2.367,2.368-2.367h27.728
			c1.309,0,2.368,1.059,2.368,2.367C43.451,25.181,42.392,26.24,41.083,26.24z"/>
		<path fill="#FFFFFF" d="M3.184,20.875c1.756,0,3.18,1.424,3.18,3.179c0,1.756-1.424,3.18-3.18,3.18C1.423,27.233,0,25.81,0,24.054
			C0,22.299,1.423,20.875,3.184,20.875z"/>
	</g>
	<g>
		<path fill="#FFFFFF" d="M41.083,36.615H13.355c-1.31,0-2.368-1.059-2.368-2.368c0-1.308,1.059-2.367,2.368-2.367h27.728
			c1.309,0,2.368,1.059,2.368,2.367C43.451,35.556,42.392,36.615,41.083,36.615z"/>
		<path fill="#FFFFFF" d="M3.184,31.25c1.756,0,3.18,1.424,3.18,3.179c0,1.756-1.424,3.18-3.18,3.18C1.423,37.608,0,36.185,0,34.429
			C0,32.674,1.423,31.25,3.184,31.25z"/>
	</g>
</g>
</svg>
