<?xml version="1.0" encoding="utf-8"?>
<!-- Generator: Adobe Illustrator 16.0.0, SVG Export Plug-In . SVG Version: 6.00 Build 0)  -->
<!DOCTYPE svg PUBLIC "-//W3C//DTD SVG 1.1//EN" "http://www.w3.org/Graphics/SVG/1.1/DTD/svg11.dtd">
<svg version="1.1" id="Artwork" xmlns="http://www.w3.org/2000/svg" xmlns:xlink="http://www.w3.org/1999/xlink" x="0px" y="0px"
	 width="57.835px" height="78.352px" viewBox="0 0 57.835 78.352" enable-background="new 0 0 57.835 78.352" xml:space="preserve">
<g>
	<g>
		<path fill="#2C2A5C" d="M57.835,69.534V8.818C57.835,3.953,53.883,0,49.018,0h-40.2C3.953,0,0,3.953,0,8.818v60.716
			c0,4.865,3.953,8.817,8.818,8.817h40.2C53.883,78.352,57.835,74.399,57.835,69.534z M3.921,69.534V8.818
			c0-2.705,2.192-4.897,4.897-4.897h40.2c2.705,0,4.897,2.192,4.897,4.897v60.716c0,2.704-2.192,4.896-4.897,4.896h-40.2
			C6.113,74.431,3.921,72.238,3.921,69.534z"/>
		<path fill="#2C2A5C" d="M49.05,13.139c0-1.088-0.88-1.968-1.968-1.968H10.754c-1.088,0-1.968,0.88-1.968,1.968v52.074
			c0,1.088,0.88,1.969,1.968,1.969h36.328c1.088,0,1.968-0.881,1.968-1.969V13.139z M45.129,63.261H12.707V15.091h32.406v48.169
			H45.129z"/>
		<path fill="#2C2A5C" d="M19.46,30.935h18.916c1.088,0,1.969-0.88,1.969-1.969c0-1.088-0.88-1.968-1.969-1.968H19.46
			c-1.088,0-1.968,0.88-1.968,1.968C17.492,30.054,18.372,30.935,19.46,30.935z"/>
		<path fill="#2C2A5C" d="M19.46,41.145h18.916c1.088,0,1.969-0.88,1.969-1.968c0-1.088-0.88-1.969-1.969-1.969H19.46
			c-1.088,0-1.968,0.88-1.968,1.969C17.492,40.264,18.372,41.145,19.46,41.145z"/>
		<path fill="#2C2A5C" d="M19.46,51.338h13.25c1.088,0,1.969-0.88,1.969-1.968c0-1.088-0.88-1.968-1.969-1.968H19.46
			c-1.088,0-1.968,0.88-1.968,1.968C17.492,50.458,18.372,51.338,19.46,51.338z"/>
	</g>
</g>
</svg>
