<?xml version="1.0" encoding="utf-8"?>
<!-- Generator: Adobe Illustrator 16.0.0, SVG Export Plug-In . SVG Version: 6.00 Build 0)  -->
<!DOCTYPE svg PUBLIC "-//W3C//DTD SVG 1.1//EN" "http://www.w3.org/Graphics/SVG/1.1/DTD/svg11.dtd">
<svg version="1.1" id="Layer_1" xmlns="http://www.w3.org/2000/svg" xmlns:xlink="http://www.w3.org/1999/xlink" x="0px" y="0px"
	 width="160px" height="118px" viewBox="0 0 160 118" enable-background="new 0 0 160 118" xml:space="preserve">
<g>
	<g>
		<rect fill="#2C2B5C" width="160" height="118"/>
		<rect x="158.959" fill="#5B5A81" width="1.041" height="118"/>
	</g>
	<g enable-background="new    ">
		<path fill="#FFFFFF" d="M28.336,80.554V98.86h-2.363V80.554H28.336z"/>
		<path fill="#FFFFFF" d="M38.143,79.576h2.39V98.86h-2.39V79.576z"/>
		<path fill="#FFFFFF" d="M56.449,92.179c0,4.862-3.368,6.98-6.545,6.98c-3.558,0-6.301-2.607-6.301-6.763
			c0-4.4,2.879-6.98,6.519-6.98C53.896,85.416,56.449,88.159,56.449,92.179z M46.019,92.314c0,2.879,1.657,5.052,3.993,5.052
			c2.282,0,3.993-2.146,3.993-5.105c0-2.228-1.114-5.053-3.938-5.053C47.241,87.208,46.019,89.815,46.019,92.314z"/>
		<path fill="#FFFFFF" d="M60.199,85.715l2.58,7.388c0.435,1.195,0.788,2.281,1.06,3.367h0.082c0.298-1.086,0.679-2.172,1.113-3.367
			l2.553-7.388h2.499l-5.16,13.146h-2.282l-4.998-13.146H60.199z"/>
		<path fill="#FFFFFF" d="M73.399,92.722c0.055,3.232,2.119,4.563,4.509,4.563c1.711,0,2.743-0.299,3.64-0.679l0.407,1.711
			c-0.842,0.38-2.281,0.814-4.373,0.814c-4.047,0-6.464-2.662-6.464-6.627c0-3.966,2.336-7.089,6.166-7.089
			c4.291,0,5.432,3.775,5.432,6.192c0,0.489-0.055,0.869-0.081,1.113H73.399z M80.407,91.011c0.027-1.521-0.625-3.884-3.314-3.884
			c-2.417,0-3.477,2.228-3.667,3.884H80.407z"/>
		<path fill="#FFFFFF" d="M93.881,80.554v10.838c0,4.101,1.819,5.839,4.264,5.839c2.716,0,4.454-1.792,4.454-5.839V80.554h2.391
			v10.675c0,5.622-2.961,7.931-6.927,7.931c-3.748,0-6.572-2.146-6.572-7.822V80.554H93.881z"/>
		<path fill="#FFFFFF" d="M111.129,93.103l-1.901,5.758h-2.444l6.22-18.307h2.852l6.247,18.307h-2.525l-1.956-5.758H111.129z
			 M117.131,91.255l-1.792-5.269c-0.407-1.195-0.679-2.281-0.95-3.341h-0.055c-0.271,1.086-0.57,2.2-0.924,3.313l-1.793,5.296
			H117.131z"/>
		<path fill="#FFFFFF" d="M134.271,90.277h-7.117v6.601h7.932v1.982h-10.294V80.554h9.886v1.983h-7.523v5.785h7.117V90.277z"/>
	</g>
	<g>
		<path fill="#FFFFFF" d="M75.326,47.545l1.179,2.948c-1.142,0.457-2.281,0.805-3.392,1.037l-0.649-3.109
			C73.396,48.225,74.358,47.931,75.326,47.545z M65.868,51.354c1.164,0.335,2.391,0.516,3.645,0.533l0.05-3.177
			c-0.975-0.017-1.922-0.152-2.815-0.41L65.868,51.354z M90.895,45.807c0.916,0.182,1.81,0.494,2.656,0.932l1.461-2.823
			c-1.119-0.575-2.295-0.988-3.503-1.224L90.895,45.807z M84.266,43.2l0.949,3.029c0.971-0.305,1.932-0.496,2.854-0.571
			l-0.254-3.166C86.654,42.585,85.46,42.824,84.266,43.2z M79.162,45.59c-0.356,0.224-0.707,0.428-1.052,0.621l1.545,2.774
			c0.389-0.218,0.785-0.446,1.183-0.695c0.546-0.338,1.081-0.641,1.604-0.907L81,44.554C80.404,44.857,79.789,45.201,79.162,45.59z
			 M87.945,25.784c0,1.297-0.312,2.527-0.862,3.607L80,43.265c0,0-7.139-13.989-7.167-14.047c-0.5-1.037-0.778-2.204-0.778-3.434
			c0-4.389,3.557-7.945,7.945-7.945C84.389,17.839,87.945,21.396,87.945,25.784z M84.768,25.784c0-2.632-2.136-4.767-4.768-4.767
			s-4.768,2.135-4.768,4.767c0,2.633,2.136,4.768,4.768,4.768S84.768,28.417,84.768,25.784z M95.893,33.729h-7.455l-1.625,3.179
			h6.789l3.431,10.293l-1.097,1.21c1.168,1.055,1.771,2.026,1.774,2.03l0.336-0.201l2.97,8.916H58.981l3.184-9.544
			c0.112,0.077,0.199,0.151,0.323,0.229l1.688-2.688c-0.378-0.239-0.688-0.476-0.962-0.695l3.185-9.551h6.791
			c-0.673-1.316-1.203-2.355-1.623-3.179h-7.458l-9.536,28.605h50.854L95.893,33.729z"/>
	</g>
</g>
</svg>
